<svg width="44" height="35" viewBox="0 0 44 35" fill="none" xmlns="http://www.w3.org/2000/svg">
<g clip-path="url(#clip0)">
<path d="M19.0656 34.9656L14.8956 33.7556C14.4581 33.6326 14.2121 33.1746 14.3351 32.7371L23.6661 0.594505C23.7892 0.157005 24.2472 -0.089089 24.6847 0.0339578L28.8546 1.24392C29.2921 1.36697 29.5382 1.82497 29.4152 2.26247L20.0841 34.405C19.9542 34.8425 19.5031 35.0955 19.0656 34.9656V34.9656ZM11.2726 27.2957L14.2462 24.1238C14.5607 23.7888 14.5402 23.2556 14.1915 22.948L7.99819 17.4998L14.1915 12.0515C14.5402 11.7439 14.5675 11.2107 14.2462 10.8758L11.2726 7.70388C10.965 7.37575 10.4455 7.35525 10.1105 7.6697L0.259918 16.8982C-0.0887145 17.2195 -0.0887145 17.7732 0.259918 18.0945L10.1105 27.3299C10.4455 27.6443 10.965 27.6306 11.2726 27.2957V27.2957ZM33.6398 27.3367L43.4904 18.1013C43.839 17.78 43.839 17.2263 43.4904 16.9051L33.6398 7.66286C33.3116 7.35525 32.7921 7.36892 32.4777 7.69704L29.504 10.8689C29.1896 11.2039 29.2101 11.7371 29.5587 12.0447L35.7521 17.4998L29.5587 22.948C29.2101 23.2556 29.1827 23.7888 29.504 24.1238L32.4777 27.2957C32.7853 27.6306 33.3048 27.6443 33.6398 27.3367V27.3367Z" fill="#32D218"/>
</g>
<defs>
<clipPath id="clip0">
<rect width="43.75" height="35" fill="white"/>
</clipPath>
</defs>
</svg>
