<svg width="25" height="26" viewBox="0 0 25 26" fill="none" xmlns="http://www.w3.org/2000/svg">
<path d="M8.36189 20.0303C8.36189 20.1311 8.24597 20.2117 8.0998 20.2117C7.93347 20.2268 7.81754 20.1462 7.81754 20.0303C7.81754 19.9295 7.93347 19.8488 8.07964 19.8488C8.23085 19.8337 8.36189 19.9143 8.36189 20.0303ZM6.79436 19.8035C6.75907 19.9043 6.85988 20.0202 7.01109 20.0504C7.14214 20.1008 7.29335 20.0504 7.32359 19.9496C7.35383 19.8488 7.25806 19.7329 7.10685 19.6875C6.97581 19.6523 6.82964 19.7027 6.79436 19.8035ZM9.02218 19.7178C8.87601 19.7531 8.7752 19.8488 8.79032 19.9648C8.80544 20.0656 8.93649 20.1311 9.0877 20.0958C9.23387 20.0605 9.33468 19.9648 9.31956 19.8639C9.30444 19.7682 9.16835 19.7027 9.02218 19.7178ZM12.3387 0.403259C5.34778 0.403259 0 5.71072 0 12.7016C0 18.2914 3.51815 23.0746 8.54335 24.7581C9.18851 24.874 9.41532 24.4758 9.41532 24.1482C9.41532 23.8357 9.4002 22.1119 9.4002 21.0535C9.4002 21.0535 5.87198 21.8095 5.13105 19.5514C5.13105 19.5514 4.55645 18.0847 3.72984 17.7067C3.72984 17.7067 2.5756 16.9154 3.81048 16.9305C3.81048 16.9305 5.06552 17.0313 5.75605 18.2309C6.85988 20.1764 8.70968 19.617 9.43044 19.2843C9.54637 18.4779 9.87399 17.9184 10.2369 17.5857C7.41936 17.2732 4.57661 16.865 4.57661 12.0162C4.57661 10.6301 4.95968 9.93451 5.76613 9.04741C5.63508 8.71979 5.20665 7.36898 5.89718 5.62503C6.9506 5.29741 9.375 6.98592 9.375 6.98592C10.3831 6.70366 11.4667 6.55749 12.5403 6.55749C13.6139 6.55749 14.6976 6.70366 15.7056 6.98592C15.7056 6.98592 18.13 5.29237 19.1835 5.62503C19.874 7.37402 19.4456 8.71979 19.3145 9.04741C20.121 9.93955 20.6149 10.6351 20.6149 12.0162C20.6149 16.8801 17.6462 17.2682 14.8286 17.5857C15.2923 17.9839 15.6855 18.74 15.6855 19.9244C15.6855 21.623 15.6704 23.7248 15.6704 24.1381C15.6704 24.4658 15.9022 24.8639 16.5423 24.748C21.5827 23.0746 25 18.2914 25 12.7016C25 5.71072 19.3296 0.403259 12.3387 0.403259ZM4.89919 17.7873C4.83367 17.8377 4.84879 17.9537 4.93448 18.0494C5.01512 18.1301 5.13105 18.1654 5.19657 18.0998C5.2621 18.0494 5.24698 17.9335 5.16129 17.8377C5.08065 17.7571 4.96472 17.7218 4.89919 17.7873ZM4.35484 17.3791C4.31956 17.4446 4.36996 17.5252 4.47077 17.5756C4.55141 17.626 4.65222 17.6109 4.6875 17.5404C4.72278 17.4748 4.67238 17.3942 4.57157 17.3438C4.47077 17.3135 4.39012 17.3287 4.35484 17.3791ZM5.9879 19.1734C5.90726 19.2389 5.9375 19.3902 6.05343 19.4859C6.16935 19.6018 6.31552 19.617 6.38105 19.5363C6.44657 19.4708 6.41633 19.3196 6.31552 19.2238C6.20464 19.1079 6.05343 19.0928 5.9879 19.1734ZM5.41331 18.4325C5.33266 18.4829 5.33266 18.6139 5.41331 18.7299C5.49395 18.8458 5.63004 18.8962 5.69556 18.8458C5.77621 18.7803 5.77621 18.6492 5.69556 18.5333C5.625 18.4174 5.49395 18.367 5.41331 18.4325Z" fill="#1B96DB"/>
</svg>
