<svg width="53" height="60" viewBox="0 0 53 60" fill="none" xmlns="http://www.w3.org/2000/svg">
<g clip-path="url(#clip0)">
<path d="M46.875 3.75H5.625C2.51953 3.75 0 6.26953 0 9.375V50.625C0 53.7305 2.51953 56.25 5.625 56.25H46.875C49.9805 56.25 52.5 53.7305 52.5 50.625V9.375C52.5 6.26953 49.9805 3.75 46.875 3.75ZM28.5703 44.6953C28.5703 49.8047 25.5703 52.1367 21.1992 52.1367C17.25 52.1367 14.9648 50.0977 13.793 47.625L17.8125 45.1992C18.5859 46.5703 19.2891 47.7305 20.9883 47.7305C22.6055 47.7305 23.6367 47.0977 23.6367 44.625V27.8555H28.5703V44.6953ZM40.2422 52.1367C35.6602 52.1367 32.6953 49.957 31.2539 47.0977L35.2734 44.7773C36.3281 46.5 37.7109 47.7773 40.1367 47.7773C42.1758 47.7773 43.4883 46.7578 43.4883 45.3398C43.4883 43.6523 42.1523 43.0547 39.8906 42.0586L38.6602 41.5312C35.0977 40.0195 32.7422 38.1094 32.7422 34.0898C32.7422 30.3867 35.5664 27.5742 39.9609 27.5742C43.1016 27.5742 45.3516 28.6641 46.9688 31.5234L43.125 33.9844C42.2812 32.4727 41.3672 31.875 39.9492 31.875C38.5078 31.875 37.5938 32.7891 37.5938 33.9844C37.5938 35.4609 38.5078 36.0586 40.6289 36.9844L41.8594 37.5117C46.0547 39.3047 48.4102 41.1445 48.4102 45.2695C48.4102 49.6992 44.918 52.1367 40.2422 52.1367Z" fill="#ECD824"/>
</g>
<defs>
<clipPath id="clip0">
<rect width="52.5" height="60" fill="white"/>
</clipPath>
</defs>
</svg>
