<svg width="40" height="40" viewBox="0 0 40 40" fill="none" xmlns="http://www.w3.org/2000/svg">
<g clip-path="url(#clip0)">
<path d="M39.6469 9.15468C39.4125 8.2039 38.6773 7.45234 37.7328 7.18984C36.7875 6.9289 35.7672 7.19843 35.0789 7.89062L30.4961 12.4711L27.9617 12.0492L27.5414 9.51718L32.125 4.93593C32.8156 4.2414 33.0844 3.22343 32.8211 2.28046C32.557 1.33437 31.8008 0.600776 30.8453 0.364057C26.6977 -0.666412 22.4148 0.525776 19.3969 3.54296C16.457 6.48203 15.2875 10.6812 16.2156 14.7359L1.87813 29.0672C0.666406 30.2758 0 31.8844 0 33.5953C0 35.3062 0.666406 36.9148 1.87813 38.1242C3.08672 39.3336 4.69531 40 6.40703 40C8.11641 40 9.725 39.3336 10.9367 38.1242L25.2602 23.807C29.3062 24.7344 33.5133 23.5617 36.4703 20.6094C39.4461 17.6328 40.6648 13.2445 39.6469 9.15468ZM33.818 17.9586C31.5937 20.182 28.3336 20.9352 25.3016 19.9281L24.2031 19.5617L8.28516 35.4734C7.28125 36.4766 5.52812 36.4742 4.52969 35.4734C4.02656 34.9719 3.75078 34.3047 3.75078 33.5953C3.75078 32.8859 4.02656 32.2195 4.52969 31.718L20.4547 15.7977L20.093 14.7016C19.0922 11.6625 19.8414 8.40312 22.0492 6.19375C23.6391 4.60625 25.7359 3.75312 27.9117 3.75312H27.9992L23.5211 8.22968L24.7031 15.307L31.7789 16.4859L36.2594 12.0102C36.2844 14.218 35.4297 16.3477 33.818 17.9586V17.9586ZM6.87578 31.8766C6.18516 31.8766 5.62578 32.4359 5.62578 33.1266C5.62578 33.8172 6.18516 34.3766 6.87578 34.3766C7.56641 34.3766 8.12578 33.8172 8.12578 33.1266C8.12578 32.4359 7.56641 31.8766 6.87578 31.8766Z" fill="#F4C10D"/>
</g>
<defs>
<clipPath id="clip0">
<rect width="40" height="40" fill="white"/>
</clipPath>
</defs>
</svg>
