<svg width="25" height="25" viewBox="0 0 25 25" fill="none" xmlns="http://www.w3.org/2000/svg">
<path d="M22.6562 3.125H2.34375C1.0498 3.125 0 4.1748 0 5.46875V19.5312C0 20.8252 1.0498 21.875 2.34375 21.875H22.6562C23.9502 21.875 25 20.8252 25 19.5312V5.46875C25 4.1748 23.9502 3.125 22.6562 3.125ZM2.34375 4.6875H22.6562C23.0859 4.6875 23.4375 5.03906 23.4375 5.46875V7.49023C22.3682 8.39355 20.8398 9.63867 16.084 13.4131C15.2588 14.0674 13.6328 15.6445 12.5 15.625C11.3672 15.6445 9.73633 14.0674 8.91602 13.4131C4.16016 9.63867 2.63184 8.39355 1.5625 7.49023V5.46875C1.5625 5.03906 1.91406 4.6875 2.34375 4.6875ZM22.6562 20.3125H2.34375C1.91406 20.3125 1.5625 19.9609 1.5625 19.5312V9.52148C2.67578 10.4346 4.43359 11.8457 7.94434 14.6338C8.94531 15.4346 10.7129 17.1973 12.5 17.1875C14.2773 17.2021 16.0303 15.4541 17.0557 14.6338C20.5664 11.8457 22.3242 10.4346 23.4375 9.52148V19.5312C23.4375 19.9609 23.0859 20.3125 22.6562 20.3125Z" fill="#F4C10D"/>
</svg>
