<?xml version="1.0" encoding="utf-8"?>
<!-- Generator: Adobe Illustrator 25.2.3, SVG Export Plug-In . SVG Version: 6.00 Build 0)  -->
<svg version="1.1" id="Layer_1" xmlns="http://www.w3.org/2000/svg" xmlns:xlink="http://www.w3.org/1999/xlink" x="0px" y="0px"
	 viewBox="0 0 436.28 429.15" style="enable-background:new 0 0 436.28 429.15;" xml:space="preserve">
<style type="text/css">
	.st0{clip-path:url(#XMLID_3_);}
	.st1{clip-path:url(#SVGID_2_);}
	.st2{fill:#54789B;}
	.st3{fill:#E2C2B0;}
	.st4{fill:#72625B;}
	.st5{clip-path:url(#SVGID_4_);}
	.st6{fill:#F7F7F7;}
	.st7{fill:#4A4256;}
	.st8{fill:#BC693B;}
	.st9{fill:#77371B;}
	.st10{fill:#BC794B;}
	.st11{clip-path:url(#SVGID_6_);}
	.st12{fill:#4F433F;}
	.st13{clip-path:url(#SVGID_8_);}
	.st14{fill:none;stroke:#000000;stroke-width:9;stroke-linecap:round;stroke-linejoin:round;stroke-miterlimit:10;}
</style>
<g>
	<defs>
		<circle id="XMLID_11_" cx="219.97" cy="219.59" r="186.64"/>
	</defs>
	<linearGradient id="XMLID_2_" gradientUnits="userSpaceOnUse" x1="169.3606" y1="8.5243" x2="268.1327" y2="420.461">
		<stop  offset="0" style="stop-color:#8CC67F"/>
		<stop  offset="0.2322" style="stop-color:#70BD82"/>
		<stop  offset="0.7307" style="stop-color:#29A68B"/>
		<stop  offset="1" style="stop-color:#009990"/>
	</linearGradient>
	<use xlink:href="#XMLID_11_"  style="overflow:visible;fill:url(#XMLID_2_);"/>
	<clipPath id="XMLID_3_">
		<use xlink:href="#XMLID_11_"  style="overflow:visible;"/>
	</clipPath>
	<g class="st0">
		<path d="M399.06,425.15c-0.4,0-0.81-0.05-1.21-0.15c-2.68-0.67-4.31-3.38-3.65-6.06c0-0.02,2.27-11.72-6.19-47.91
			c-8.84-37.82-18.27-44.16-46.75-58.48c-28.84-14.5-57.62-13.6-57.91-13.59c-1.79,0.09-3.5-0.84-4.44-2.37
			c-0.95-1.53-1-3.45-0.14-5.03c0,0,3.71-6.79,6.15-11.35c1.91-3.57,2.67-7.57,4.33-16.32l0.43-2.24
			c1.96-10.29,2.7-15.74,2.71-15.79c0.27-2.03,1.75-3.68,3.73-4.18c0.26-0.07,0.76-0.27,1.12-0.48c0.36-0.72,0.95-2.55,1.86-7.03
			c0.73-3.59,1.23-15.85,1.25-22.7c0-0.18-0.02-0.25-0.02-0.25c-0.32-0.39-2.02-0.79-2.85-0.79c-1.37,0-2.67-0.56-3.62-1.55
			c-0.94-0.99-1.44-2.32-1.38-3.69c0.01-0.26,1.2-25.82,1.61-33.88c0.46-9.04-1.84-22.95-15.4-37.83
			c-16.55-18.18-33.57-22.18-42.25-22.95c-11.04-0.98-34.03-3.02-57.01,18.7c-16.62,15.7-12.97,51.25-11.41,66.43
			c0.25,2.44,0.45,4.37,0.53,5.83c0.09,1.64,0.34,5.99-3.74,7.24c-6.51,1.99-8.85,3.46-9.58,4.03c-0.67,2.68-0.19,12.86,2.49,25.88
			c0.78,3.78,1.54,3.7,4.77,3.35c1.82-0.2,4.31-0.46,6.38,1.34c1.21,1.05,1.9,2.54,1.95,4.18c0.06,2.02,1.35,12.16,2.15,18.08
			c0.02,0.15,0.03,0.3,0.04,0.46l1.14,26.64c0.11,2.68-1.91,4.97-4.58,5.2c-0.63,0.05-62.94,5.43-92.33,26.09
			c-30.5,21.44-31.78,95.51-31.79,96.25c-0.03,2.74-2.27,4.94-5,4.94c-0.02,0-0.04,0-0.06,0c-2.76-0.03-4.97-2.3-4.94-5.06
			c0.04-3.25,1.36-79.94,36.04-104.31c26.98-18.96,76.77-25.7,92.47-27.41l-0.93-21.69c-0.24-1.77-1.26-9.42-1.82-14.59
			c-4.22,0.09-11.14-1.11-13.27-11.45c-2.17-10.54-5.12-29.01-0.48-34.27c1.94-2.19,5.47-4.16,10.98-6.09
			c-0.1-1.1-0.23-2.4-0.36-3.61c-1.71-16.65-5.72-55.63,14.49-74.72c26.25-24.8,53.23-22.41,64.76-21.39
			c10.12,0.9,29.92,5.49,48.76,26.18c15.87,17.43,18.54,34.13,17.99,45.07c-0.3,6.01-1.05,21.8-1.41,29.5
			c1.61,0.55,3.32,1.44,4.75,2.87c1.93,1.93,2.94,4.46,2.93,7.32c-0.02,5.58-0.4,19.54-1.45,24.67c-1.36,6.69-2.51,10.46-4.99,12.54
			c-0.66,0.55-1.36,1-2.03,1.36c-0.42,2.66-1.17,7.16-2.36,13.46l-0.42,2.24c-1.8,9.5-2.7,14.26-5.34,19.18
			c-0.69,1.3-1.49,2.77-2.28,4.22c11.38,0.71,32.61,3.56,54.29,14.46c31.49,15.83,42.46,24.38,51.99,65.13
			c9.06,38.75,6.48,51.3,6.15,52.6C403.35,423.63,401.31,425.15,399.06,425.15z"/>
	</g>
	<g class="st0">
		<defs>
			<path id="SVGID_1_" d="M170.24,292.98c0,0-80.25,9.68-99.45,30.87c-31.13,34.35-29.26,96.39-29.26,96.39h358.62
				c0,0,0.13-52.42-20.16-87.35c-10.33-17.79-64.14-39.51-92.12-39.92S170.24,292.98,170.24,292.98z"/>
		</defs>
		<use xlink:href="#SVGID_1_"  style="overflow:visible;fill:#456182;"/>
		<clipPath id="SVGID_2_">
			<use xlink:href="#SVGID_1_"  style="overflow:visible;"/>
		</clipPath>
		<g class="st1">
			<path class="st2" d="M162.84,287.49c0,0-9.82,68.2,58.21,70.46c25.29,0.84,42.67-4.87,53.84-17.94
				c17.26-20.2,8.92-60.36,8.92-60.36L162.84,287.49z"/>
		</g>
	</g>
	<g class="st0">
		<path class="st3" d="M167.91,239.73l3.28,55.69c0,0-5.87,52.97,55.49,52.97c51.83,0,51.38-46.16,51.38-46.16l-2.89-62.5H167.91z"
			/>
	</g>
	<g class="st0">
		<path class="st3" d="M168.1,205.01c0,0-18.13-4.31-17.43,12.8c0.7,17.11,3.79,29.94,11.02,29.94s10.41-2.32,10.41-2.32l2.07-11.17
			l-2.33-22.48L168.1,205.01z"/>
	</g>
	<g class="st0">
		<path class="st3" d="M292.59,205.01c0,0,14.41-4.49,13.83,12.62c-0.58,17.11-1.95,28.99-7.98,28.99s-9.13-0.88-9.13-0.88
			l-1.77-11.48l1.95-22.48L292.59,205.01z"/>
	</g>
	<g id="XMLID_9_" class="st0">
		<path class="st4" d="M166.8,242.58l-2.36-38.55c0,0-1.84-17.77-1.38-29.88c0.46-12.12,0.4-39.14,17.94-51.8
			c16.79-12.12,35.23-17.41,50.57-16.63c18.8,0.95,45.55,14.22,55.48,28.99c7.82,11.64,13.14,22.34,13.11,33.74
			c-0.01,5.72-1.61,34.69-1.61,37.07s-1.84,49.66-2.53,54.65c-0.69,4.99-2.07,17.58-8.05,27.09c-5.98,9.5-11.95,38.03-43.48,38.5
			c-28.57,0.42-48.04-18.11-53.14-22.57c-11.13-9.74-21.9-30.75-23.28-41.68S166.8,242.58,166.8,242.58z"/>
	</g>
	<g class="st0">
		<path class="st3" d="M174.33,208.12l12.33-24c0,0-11.68-28.49-10.37-34.57c2.76-12.83,15.72-14.81,17.56-15.76
			s0.46,7.37,5.98,8.32s14.49,0.48,14.49,0.48s-0.46,5.23,3.91,6.18c4.37,0.95,12.42,0.48,12.42,0.48s1.41,8.03,12.69,8.08
			c18.89,0.08,30.92-18.1,30.92-18.1s6.2-2.18,9.69,1.43c9.76,10.08,5.87,36.83,5.41,37.78s4.37,6.18,5.75,9.03
			c1.08,2.24-0.24,44.15-0.86,62.08c-0.18,5.3-1.86,10.42-4.83,14.75c-4.56,6.66-8.12,13.77-10.32,15.42
			c-2.09,1.57-1.63-2.21-1.4-6.98c0.39-7.96,0.77-8.63-0.12-13.74c-0.65-3.77-6.11-6.46-13.04-7.13c-3.49-0.33-6.98,2.62-12.33,3.03
			c-2.46,0.19-7.28-1.62-10.65-1.47c-10.67,0.48-23.89,2.19-27.89,4.86c-2.85,1.9-5.1,4.57-3.36,13.43
			c0.77,3.92-0.32,13.43-2.39,14.14c-2.07,0.71-26.46-19.49-28.99-26.14C176.4,253.03,174.33,219.53,174.33,208.12z"/>
	</g>
	<g class="st0">
		<path class="st3" d="M227.94,270.79c0,0-6.82-0.99-7.68,2.8c-1.87,8.14,1.94,17.47,6.02,21.03c4.08,3.56,9.68,7.84,12.71,7.6
			c3.03-0.24,3.26-4.99,3.03-7.13c-0.23-2.14-5.83-13.66-5.83-13.66s4.75,0.89,10.35,0.89s11.34-2.14,11.34-2.14
			s-2.92,12-3.32,14.61c-0.4,2.61,1.22,6.24,3.56,5.53c2.33-0.71,10.73-6.89,12.59-12.36c1.11-3.25,1.81-13.48,1.38-16.65
			c-0.22-1.62-1.02-3.04-2.61-2.83c0,0-14.48,2.3-22.09,2.79C239.77,271.76,227.94,270.79,227.94,270.79"/>
	</g>
	<g class="st0">
		<defs>
			<path id="SVGID_3_" d="M267.93,268.69c0,0-9.8,2.02-20.55,2.58c-8.83,0.47-18.31-0.53-23.51-0.32c0,0,9.76,6.56,23.16,5.73
				S267.93,268.69,267.93,268.69z"/>
		</defs>
		<use xlink:href="#SVGID_3_"  style="overflow:visible;fill:#4D4D4D;"/>
		<clipPath id="SVGID_4_">
			<use xlink:href="#SVGID_3_"  style="overflow:visible;"/>
		</clipPath>
		<g class="st5">
			<path class="st6" d="M223.87,277.02c0,0,13.33,1.3,22.03,0.49c8.7-0.81,22.03-2.05,22.03-2.05l4.87-13.16c0,0-51.47,3.8-50.6,3.8
				C223.07,266.1,223.87,277.02,223.87,277.02z"/>
		</g>
	</g>
	<g class="st0">
		<path class="st7" d="M287.69,297.04l-0.24-4.25c0,0,5.09-0.11,13.31,1.27c21.59,3.62,66.53,19.51,79.78,39.29
			c5.47,8.17,8.82,19.18,11.7,29.88c7.91,29.35,7.91,57.01,7.91,57.01h-17.21c0,0-1.75-64.85-18.86-84.63
			c-17.11-19.78-76.27-37.6-77.23-39.02"/>
	</g>
	<g class="st0">
		<path class="st8" d="M295.1,187.45c-1.38-2.85-6.21-8.08-5.75-9.03c0.46-0.95,4.35-27.71-5.41-37.78
			c-2.96-3.06-7.88-1.95-9.29-1.55c-0.31,0.27-0.61,0.55-0.89,0.81c-0.45,0.62-1.21,1.61-2.26,2.82l0,0
			c-1.52,3.62,3.17-2.8,6.54,4.09c3.37,6.89,4.3,31.37,1.5,37.78c-2.8,6.42-2.07,12.12-1.5,12.36s1.5,9.13,1.5,9.13
			s3.73,14.8,4.43,25.41c0.7,10.61,1.63,21.54,0,25.82c-1.63,4.27,1.01,14.85-1.92,18.62c1.99-3.08,4.47-7.46,7.34-11.66
			c2.96-4.33,4.64-9.45,4.83-14.75C294.86,231.6,296.19,189.69,295.1,187.45z"/>
	</g>
	<g class="st0">
		<path class="st9" d="M286.84,134.7c-9.81-14.6-36.04-27.72-54.8-28.94c10.02,11.1,33.96,16.35,30.47,44.99
			c7.34-5.18,11.54-11.53,11.54-11.53s6.2-2.18,9.69,1.43c9.76,10.08,5.87,36.83,5.41,37.78s4.37,6.18,5.75,9.03
			c1.08,2.24-0.24,44.15-0.86,62.08c-0.18,5.3-1.86,10.42-4.83,14.75c-4.56,6.66-8.12,13.77-10.32,15.42
			c-2.09,1.57-1.63-2.21-1.4-6.98c0.39-7.96,0.77-8.63-0.12-13.74c-0.31-1.79-1.71-3.34-3.84-4.54c1.88,4.8,1.72,8.06,1.13,10.96
			c-1.52,7.6-1.87,10.14-3.44,28.67c-1.49,17.57,0.19,16.75-6.05,25.82c13.95-8.97,18.27-25.76,22.59-32.63
			c5.98-9.51,7.36-22.1,8.05-27.09c0.69-4.99,2.53-52.28,2.53-54.65s1.6-31.35,1.61-37.07C299.98,157.03,294.66,146.34,286.84,134.7
			z"/>
	</g>
	<g class="st0">
		<path class="st10" d="M270.9,245.05c0.16,3.82-6.36,9.34-17.49,9.85c0,0,12.82-2.64,12.58-9.65c-0.36-10.87-9.62-26.43-15.13-37.1
			C250.11,206.69,270.37,232.12,270.9,245.05z"/>
	</g>
	<g class="st0">
		<defs>
			<path id="SVGID_5_" d="M229.32,214.6c1.2,5.44-6.17,6.02-13.79,6.02s-14.77-3.11-14.77-7.02c0-3.03,11.47-7.22,19.08-7.22
				C225.93,206.38,228.26,209.78,229.32,214.6z"/>
		</defs>
		<use xlink:href="#SVGID_5_"  style="overflow:visible;fill:#F7F7F7;"/>
		<clipPath id="SVGID_6_">
			<use xlink:href="#SVGID_5_"  style="overflow:visible;"/>
		</clipPath>
		<g class="st11">
			<ellipse class="st12" cx="216.19" cy="212.3" rx="7.68" ry="7.82"/>
		</g>
	</g>
	<g class="st0">
		<defs>
			<path id="SVGID_7_" d="M287.95,212.97c0,3.59-9.21,6.64-12.55,6.64c-6.54,0-12.38-0.55-11.14-5.64c1.33-5.49,3.22-7.94,9.76-7.94
				C283.29,206.03,287.95,210.68,287.95,212.97z"/>
		</defs>
		<use xlink:href="#SVGID_7_"  style="overflow:visible;fill:#F7F7F7;"/>
		<clipPath id="SVGID_8_">
			<use xlink:href="#SVGID_7_"  style="overflow:visible;"/>
		</clipPath>
		<g class="st13">
			<ellipse class="st12" cx="274.24" cy="211.94" rx="6.81" ry="6.94"/>
		</g>
	</g>
	<g class="st0">
		<path class="st4" d="M189.55,207.05l4.42-2.26c3.63-1.49,5.77-2.54,9.69-2.73c0,0,16.67-0.36,21.1-0.36
			c3.23,0,9.97-0.26,12.43-0.54c0.71-0.08,1.03-0.94,0.56-1.48c-0.58-0.67-2.61-2.13-3.94-2.88c-3.15-1.78-6.13-2.1-9.98-1.75
			c-3.85,0.36-20.99,1.31-24.83,2.61c-3.85,1.31-7.5,5.05-9.79,7.84C188.57,206.28,189.55,207.05,189.55,207.05z"/>
	</g>
	<g class="st0">
		<path class="st4" d="M294.48,205.01L290.8,203c-3-1.28-4.77-2.21-7.9-2.17c0,0-14.21,0.59-17.73,0.84
			c-2.57,0.18-6.57-0.04-8.54-0.17c-0.57-0.04-0.89-0.88-0.55-1.45c0.42-0.7,1.08-1.58,2.09-2.41c2.39-1.96,4.19-2.8,7.28-2.66
			c1.2,0.05,3.31,0.59,6.64,0.67c5.25,0.12,12.29-0.13,14.22,0.53c3.15,1.09,6.32,4.61,8.34,7.27
			C295.21,204.18,294.48,205.01,294.48,205.01z"/>
	</g>
	<g id="strokes_1_" class="st0">
		<g>
			<path d="M214.21,144.08c-0.7,0-1.32-0.49-1.47-1.2c-0.17-0.81,0.36-1.6,1.17-1.77c7.98-1.64,10.42-2.67,11.11-3.05
				c0.06-0.16,0.14-0.31,0.25-0.45c0.52-0.64,1.47-0.73,2.11-0.21c0.49,0.4,0.7,1.06,0.55,1.69c-0.24,0.98-0.57,2.32-13.42,4.96
				C214.41,144.07,214.31,144.08,214.21,144.08z M225.48,139.72L225.48,139.72L225.48,139.72z"/>
		</g>
		<g>
			<path d="M230.54,150.73c-0.72,0-1.36-0.53-1.48-1.26c-0.13-0.82,0.43-1.59,1.25-1.72c13.75-2.19,19.25-9.96,19.3-10.04
				c0.47-0.68,1.4-0.85,2.08-0.39c0.68,0.47,0.86,1.4,0.4,2.08c-0.25,0.36-6.2,8.9-21.31,11.31
				C230.7,150.73,230.62,150.73,230.54,150.73z"/>
		</g>
		<g>
			<path d="M180.86,345.5c-0.3,0-0.6-0.09-0.86-0.27c-15.47-10.79-18.22-35.85-18.32-36.91c-0.08-0.82,0.51-1.56,1.34-1.65
				c0.81-0.08,1.56,0.51,1.65,1.34c0.03,0.25,2.72,24.75,17.06,34.75c0.68,0.47,0.85,1.41,0.37,2.09
				C181.8,345.27,181.34,345.5,180.86,345.5z"/>
		</g>
		<g>
			<path d="M289.74,181.12c-0.06,0-0.12,0-0.19-0.01c-0.82-0.1-1.41-0.85-1.3-1.67c0.02-0.19,2.32-19.31-1.72-31.59
				c-1.26-3.83-3.13-6.31-5.56-7.36c-2.48-1.07-4.95-0.37-5.84-0.05c-1.95,2.77-13.71,18.38-31.77,18.38c-0.04,0-0.09,0-0.13,0
				c-9.53-0.04-12.76-5.48-13.76-8.03c-2.44,0.09-8.12,0.21-11.66-0.56c-3.53-0.77-4.78-3.75-5.05-6.08
				c-2.84,0.09-9,0.18-13.29-0.56c-4.38-0.75-5.38-5.07-5.92-7.39c-0.07-0.3-0.16-0.67-0.24-0.96c-0.38-0.11-0.71-0.37-0.9-0.75
				c-0.38-0.74-0.09-1.64,0.65-2.02c0.58-0.3,1.2-0.32,1.75-0.07c1.06,0.49,1.32,1.65,1.67,3.13c0.59,2.57,1.27,4.73,3.51,5.11
				c5.29,0.91,14.07,0.46,14.16,0.46c0.43-0.02,0.86,0.14,1.16,0.46c0.3,0.31,0.45,0.74,0.42,1.17c-0.03,0.4-0.22,3.94,2.74,4.58
				c4.12,0.9,11.93,0.45,12.02,0.44c0.75-0.03,1.43,0.49,1.57,1.24c0.05,0.27,1.42,6.8,11.22,6.84c0.04,0,0.08,0,0.12,0
				c17.77,0,29.43-17.25,29.55-17.43c0.15-0.23,0.36-0.41,0.6-0.52c0.17-0.08,4.28-2,8.61-0.15c3.27,1.4,5.71,4.49,7.26,9.19
				c4.25,12.92,1.95,32.09,1.85,32.9C291.13,180.56,290.48,181.12,289.74,181.12z"/>
		</g>
		<g>
			<path d="M251.13,256.4c-0.78,0-1.6-0.04-2.45-0.11c-0.5-0.05-11.73-1.26-15.96-5.58c-0.58-0.59-0.57-1.54,0.02-2.12
				c0.59-0.58,1.54-0.57,2.12,0.02c2.89,2.95,11.16,4.39,14.1,4.69c8.19,0.73,12.07-2.47,15.36-7.5c1.76-2.69-6.3-21.26-14.78-36.93
				c-0.18-0.33-0.23-0.71-0.14-1.07c0.17-0.69,0.82-3.03,2.25-4.02c0.68-0.47,1.61-0.31,2.09,0.37c0.47,0.68,0.31,1.61-0.38,2.09
				c-0.27,0.19-0.65,0.99-0.9,1.74c4.63,8.6,17.84,34.15,14.36,39.46C263.9,251.93,259.74,256.4,251.13,256.4z"/>
		</g>
		<g>
			<path d="M262.41,273.92c-0.6,0-1.17-0.36-1.4-0.96c-0.28-0.72,0.04-1.53,0.71-1.88c-4.82,0.65-10.71,1.4-14.23,1.68
				c-6.67,0.53-23.01-0.29-23.71-0.32c-0.83-0.04-1.46-0.75-1.42-1.57s0.75-1.46,1.57-1.42c0.17,0.01,16.84,0.84,23.32,0.33
				c6.52-0.52,21.83-2.75,21.99-2.78c0.67-0.1,1.33,0.27,1.59,0.89c0.27,0.62,0.09,1.35-0.45,1.77c-0.13,0.1-3.21,2.51-7.44,4.16
				C262.78,273.89,262.59,273.92,262.41,273.92z"/>
		</g>
		<g>
			<path d="M176.04,284.25c-0.48,0-0.95-0.23-1.24-0.65c-10.89-15.91-9.53-33.12-9.36-34.91l-0.67-12.91
				c-0.04-0.83,0.59-1.53,1.42-1.58c0.81-0.03,1.53,0.59,1.58,1.42l0.67,13.02c0,0.08,0,0.16-0.01,0.24
				c-0.02,0.17-1.77,17.52,8.84,33.01c0.47,0.68,0.29,1.62-0.39,2.08C176.63,284.17,176.34,284.25,176.04,284.25z"/>
		</g>
		<g>
			<path d="M229.45,214.79c-0.04,0-0.08,0-0.12,0c-0.82-0.07-1.44-0.78-1.38-1.6c0.01-0.11,0.11-2.22-1.64-3.82
				c-1.97-1.8-5.64-2.36-10.63-1.61c-11.23,1.69-13.31,5.65-13.33,5.69c-0.36,0.73-1.24,1.06-1.98,0.72
				c-0.74-0.34-1.08-1.18-0.77-1.93c0.24-0.56,2.67-5.5,15.63-7.45c6.04-0.91,10.47-0.09,13.16,2.42c2.8,2.62,2.56,6.06,2.54,6.21
				C230.88,214.2,230.22,214.79,229.45,214.79z"/>
		</g>
		<g>
			<path d="M264.26,215.47c-0.21,0-0.43-0.05-0.63-0.14c-0.75-0.35-1.08-1.24-0.72-1.99l2.72-5.82c0.02-0.04,0.04-0.09,0.07-0.13
				c0.34-0.58,2.49-3.41,11.37-2.69c9.19,0.75,12.15,7.4,12.27,7.68c0.33,0.76-0.02,1.64-0.79,1.97c-0.76,0.32-1.64-0.02-1.97-0.78
				l0,0c-0.1-0.22-2.43-5.29-9.76-5.88c-6.36-0.52-8.25,0.97-8.56,1.26l-2.64,5.65C265.36,215.15,264.82,215.47,264.26,215.47z
				 M268.27,208.91L268.27,208.91L268.27,208.91z"/>
		</g>
		<g>
			<path d="M298.27,215.47c-0.06,0-0.12,0-0.18-0.01c-0.82-0.1-1.41-0.85-1.31-1.67l1.4-11.58c0.1-0.82,0.86-1.41,1.67-1.31
				c0.82,0.1,1.41,0.85,1.31,1.67l-1.4,11.58C299.67,214.91,299.02,215.47,298.27,215.47z"/>
		</g>
		<g>
			<path d="M255.94,354.57c-0.58,0-1.13-0.33-1.37-0.9c-0.33-0.76,0.01-1.64,0.77-1.98c15.46-6.79,25.13-18.68,28.77-35.33
				c2.73-12.53,0.83-23.2,0.81-23.31c-0.15-0.81,0.39-1.6,1.2-1.75c0.83-0.15,1.6,0.39,1.75,1.2c0.08,0.45,7.79,44.74-31.32,61.93
				C256.35,354.53,256.14,354.57,255.94,354.57z"/>
		</g>
		<g>
			<path d="M174.73,320.65c-0.62,0-1.2-0.38-1.41-1c-2.86-8.07-5.13-28.51-5.23-29.38c-0.09-0.82,0.5-1.56,1.33-1.66
				c0.81-0.08,1.56,0.5,1.66,1.33c0.02,0.21,2.33,20.96,5.07,28.7c0.28,0.78-0.13,1.64-0.91,1.92
				C175.07,320.62,174.9,320.65,174.73,320.65z"/>
		</g>
		<g>
			<path d="M162.41,303.73c-0.79,0-1.45-0.62-1.5-1.41l-0.54-9.44c-0.05-0.83,0.58-1.54,1.41-1.58c0.82-0.06,1.54,0.58,1.58,1.41
				l0.54,9.44c0.05,0.83-0.58,1.54-1.41,1.58C162.46,303.73,162.43,303.73,162.41,303.73z"/>
		</g>
		<g>
			<path d="M242.89,327.06c-9.68,0-18.2-2.22-28.16-5.7c-0.78-0.27-1.19-1.13-0.92-1.91c0.27-0.78,1.13-1.2,1.91-0.92
				c11.6,4.05,21.16,6.35,32.96,5.26c13.64-1.25,22.34-10.51,22.43-10.6c9.78-10.82,14.54-22.84,14.58-22.96
				c0.3-0.77,1.17-1.15,1.94-0.85c0.77,0.3,1.15,1.17,0.85,1.94c-0.2,0.51-4.99,12.63-15.16,23.89
				c-0.39,0.42-9.54,10.21-24.37,11.57C246.87,326.96,244.85,327.06,242.89,327.06z"/>
		</g>
	</g>
</g>
<circle id="XMLID_13_" class="st14" cx="219.97" cy="219.59" r="186.64"/>
</svg>
