<svg width="70" height="56" viewBox="0 0 70 56" fill="none" xmlns="http://www.w3.org/2000/svg">
<g clip-path="url(#clip0)">
<path d="M31.5 27.9412V33.1801C31.5 33.6433 31.6844 34.0875 32.0126 34.415C32.3408 34.7425 32.7859 34.9264 33.25 34.9265H36.75C37.2141 34.9264 37.6592 34.7425 37.9874 34.415C38.3156 34.0875 38.5 33.6433 38.5 33.1801V27.9412C38.5 27.0149 38.1312 26.1265 37.4749 25.4715C36.8185 24.8165 35.9283 24.4485 35 24.4485C34.0717 24.4485 33.1815 24.8165 32.5251 25.4715C31.8687 26.1265 31.5 27.0149 31.5 27.9412ZM68.25 13.9706V13.0974C68.25 12.4027 67.9734 11.7364 67.4812 11.2452C66.9889 10.7539 66.3212 10.4779 65.625 10.4779C64.9288 10.4779 64.2611 10.7539 63.7688 11.2452C63.2766 11.7364 63 12.4027 63 13.0974V13.9706H61.25V17.4632H63V38.4191H57.75V33.1801C57.7479 31.3282 57.0097 29.5526 55.6974 28.2431C54.3851 26.9336 52.6059 26.1969 50.75 26.1949H47.25C46.4909 26.2039 45.7385 26.3377 45.023 26.5909L42.1709 3.82349C42.037 2.76844 41.5224 1.79824 40.7234 1.09447C39.9244 0.390698 38.8958 0.00160134 37.8301 0L32.1699 0C31.1042 0.00158336 30.0756 0.390674 29.2766 1.09445C28.4776 1.79822 27.963 2.76843 27.8291 3.82349L24.9937 26.596C24.2732 26.3393 23.515 26.2037 22.75 26.1949H19.25C17.3941 26.1969 15.6149 26.9336 14.3026 28.2431C12.9903 29.5526 12.2521 31.3282 12.25 33.1801V38.4191H7V17.4632H8.75V13.9706H7V13.0974C7 12.4027 6.72344 11.7364 6.23116 11.2452C5.73887 10.7539 5.07119 10.4779 4.375 10.4779C3.67881 10.4779 3.01113 10.7539 2.51884 11.2452C2.02656 11.7364 1.75 12.4027 1.75 13.0974V13.9706H0V17.4632H1.75V46.2776C1.74707 46.872 1.9478 47.4495 2.31892 47.9145C2.69004 48.3794 3.20925 48.7038 3.79047 48.8339C4.3717 48.964 4.98001 48.8919 5.51457 48.6297C6.04913 48.3674 6.47781 47.9308 6.72955 47.392L18.375 52.0405V54.136C18.375 54.5992 18.5594 55.0433 18.8876 55.3708C19.2158 55.6983 19.6609 55.8823 20.125 55.8824H21.875C22.3391 55.8823 22.7842 55.6983 23.1124 55.3708C23.4406 55.0433 23.625 54.5992 23.625 54.136V52.3014C24.5487 52.187 25.4398 51.8875 26.2447 51.4208C26.9844 51.9923 27.8688 52.3897 28.875 52.3897H41.125C42.1312 52.3897 43.0156 51.9921 43.7553 51.4208C44.5602 51.8874 45.4513 52.187 46.375 52.3014V54.136C46.375 54.5992 46.5594 55.0433 46.8876 55.3708C47.2158 55.6983 47.6609 55.8823 48.125 55.8824H49.875C50.3391 55.8823 50.7842 55.6983 51.1124 55.3708C51.4406 55.0433 51.625 54.5992 51.625 54.136V52.0405L63.2704 47.392C63.5222 47.9308 63.9509 48.3674 64.4854 48.6297C65.02 48.8919 65.6283 48.964 66.2095 48.8339C66.7907 48.7038 67.31 48.3794 67.6811 47.9145C68.0522 47.4495 68.2529 46.872 68.25 46.2776V17.4632H70V13.9706H68.25ZM24.5 45.4044C24.5 45.8676 24.3156 46.3117 23.9874 46.6392C23.6592 46.9667 23.2141 47.1507 22.75 47.1507H19.25C18.7859 47.1507 18.3408 46.9667 18.0126 46.6392C17.6844 46.3117 17.5 45.8676 17.5 45.4044V33.1801C17.5 32.9508 17.5453 32.7237 17.6332 32.5118C17.7211 32.3 17.85 32.1075 18.0125 31.9453C18.1751 31.7831 18.368 31.6545 18.5803 31.5667C18.7926 31.479 19.0202 31.4338 19.25 31.4338H22.75C22.9798 31.4338 23.2074 31.479 23.4197 31.5667C23.632 31.6545 23.8249 31.7831 23.9875 31.9453C24.15 32.1075 24.2789 32.3 24.3668 32.5118C24.4547 32.7237 24.5 32.9508 24.5 33.1801V45.4044ZM40.25 45.4044C40.25 45.8676 40.0656 46.3117 39.7374 46.6392C39.4092 46.9667 38.9641 47.1507 38.5 47.1507H31.4979C31.0341 47.1508 30.5893 46.9671 30.2612 46.64C29.933 46.313 29.7484 45.8693 29.7479 45.4065L29.7295 30.8864L32.9424 5.23897H37.0576L40.25 30.5607V45.4044ZM52.5 45.4044C52.5 45.8676 52.3156 46.3117 51.9874 46.6392C51.6592 46.9667 51.2141 47.1507 50.75 47.1507H47.25C46.7859 47.1507 46.3408 46.9667 46.0126 46.6392C45.6844 46.3117 45.5 45.8676 45.5 45.4044V33.1801C45.5 32.9508 45.5453 32.7237 45.6332 32.5118C45.7211 32.3 45.85 32.1075 46.0126 31.9453C46.1751 31.7831 46.368 31.6545 46.5803 31.5667C46.7926 31.479 47.0202 31.4338 47.25 31.4338H50.75C50.9798 31.4338 51.2074 31.479 51.4197 31.5667C51.632 31.6545 51.8249 31.7831 51.9874 31.9453C52.15 32.1075 52.2789 32.3 52.3668 32.5118C52.4547 32.7237 52.5 32.9508 52.5 33.1801V45.4044Z" fill="#00B5B5"/>
</g>
<defs>
<clipPath id="clip0">
<rect width="70" height="55.8824" fill="white"/>
</clipPath>
</defs>
</svg>
