<svg width="60" height="60" viewBox="0 0 60 60" fill="none" xmlns="http://www.w3.org/2000/svg">
<path d="M26.25 18.75C24.1758 18.75 22.5 17.0742 22.5 15C22.5 12.9258 24.1758 11.25 26.25 11.25C28.3242 11.25 30 12.9258 30 15C30 17.0742 28.3242 18.75 26.25 18.75ZM41.25 15C41.25 12.9258 39.5742 11.25 37.5 11.25C35.4258 11.25 33.75 12.9258 33.75 15C33.75 17.0742 35.4258 18.75 37.5 18.75C39.5742 18.75 41.25 17.0742 41.25 15ZM52.5 15C52.5 12.9258 50.8242 11.25 48.75 11.25C46.6758 11.25 45 12.9258 45 15C45 17.0742 46.6758 18.75 48.75 18.75C50.8242 18.75 52.5 17.0742 52.5 15ZM60 9.375V50.625C60 53.7305 57.4805 56.25 54.375 56.25H5.625C2.51953 56.25 0 53.7305 0 50.625V9.375C0 6.26953 2.51953 3.75 5.625 3.75H54.375C57.4805 3.75 60 6.26953 60 9.375ZM56.25 26.25H3.75V50.625C3.75 51.6562 4.59375 52.5 5.625 52.5H54.375C55.4062 52.5 56.25 51.6562 56.25 50.625V26.25ZM56.25 22.5V9.375C56.25 8.34375 55.4062 7.5 54.375 7.5H5.625C4.59375 7.5 3.75 8.34375 3.75 9.375V22.5H56.25Z" fill="#AA27D8"/>
</svg>
