<svg width="60" height="48" viewBox="0 0 60 48" fill="none" xmlns="http://www.w3.org/2000/svg">
<path d="M56.88 13.8666L32.6925 6.40689C30.9291 5.86502 29.0719 5.86502 27.3075 6.40689L3.12 13.8666C1.25437 14.4422 0 16.1035 0 18.0019C0 19.9003 1.25437 21.5616 3.12 22.1372L5.2425 22.7916C5.01187 23.2781 4.83 23.7872 4.70813 24.3206C3.70594 24.8063 3 25.8122 3 27.001C3 28.0116 3.5325 28.8619 4.29938 29.4056L1.90594 40.1747C1.69781 41.1113 2.41031 42 3.37031 42H8.63062C9.59062 42 10.3031 41.1113 10.095 40.1747L7.70062 29.4056C8.46656 28.8619 9 28.0116 9 27.001C9 26.0072 8.48531 25.1691 7.74094 24.6235C7.84688 24.2906 8.01844 23.9981 8.19563 23.7019L13.3397 25.2881L12 36C12 39.3131 20.0588 42 30 42C39.9412 42 48 39.3141 48 36L46.6613 25.2881L56.88 22.1363C58.7466 21.5606 60 19.8994 60 18.001C60 16.1025 58.7456 14.4422 56.88 13.8666ZM43.3538 35.1066C37.7569 38.3128 22.1756 38.2735 16.6472 35.1066L17.7066 26.6353L27.3084 29.5969C28.3538 29.9185 30.3309 30.3253 32.6934 29.5969L42.2953 26.6353L43.3538 35.1066ZM31.3678 25.2956C30.4828 25.5685 29.5162 25.5685 28.6312 25.2956L14.4956 20.9344L30.2747 17.9756C31.0894 17.8238 31.6256 17.04 31.4728 16.2253C31.3209 15.4078 30.5269 14.8791 29.7234 15.0291L10.6191 18.6103C9.99656 18.7266 9.41906 18.9422 8.865 19.1981L4.98656 18L28.6322 10.7072C29.5172 10.4344 30.4838 10.4344 31.3688 10.7072L55.0144 18.0028L31.3678 25.2956Z" fill="#3FC6FF"/>
</svg>
