<svg width="40" height="40" viewBox="0 0 40 40" fill="none" xmlns="http://www.w3.org/2000/svg">
<path d="M17.5 2.5C17.5 1.11953 16.3805 0 15 0H10C8.61953 0 7.5 1.11953 7.5 2.5V10H17.5V2.5ZM37.5 10C36.1195 10 35 11.1195 35 12.5C35 13.8805 36.1195 15 37.5 15C38.8805 15 40 13.8805 40 12.5C40 11.1195 38.8805 10 37.5 10ZM17.5 12.5H7.5C3.35781 12.5 0 15.8578 0 20V37.5C0 38.8805 1.11953 40 2.5 40H22.5C23.8805 40 25 38.8805 25 37.5V20C25 15.8578 21.6422 12.5 17.5 12.5ZM12.5 32.5C9.04844 32.5 6.25 29.7016 6.25 26.25C6.25 22.7984 9.04844 20 12.5 20C15.9516 20 18.75 22.7984 18.75 26.25C18.75 29.7016 15.9516 32.5 12.5 32.5ZM37.5 7.5C38.8805 7.5 40 6.38047 40 5C40 3.61953 38.8805 2.5 37.5 2.5C36.1195 2.5 35 3.61953 35 5C35 6.38047 36.1195 7.5 37.5 7.5ZM30 10C28.6195 10 27.5 11.1195 27.5 12.5C27.5 13.8805 28.6195 15 30 15C31.3805 15 32.5 13.8805 32.5 12.5C32.5 11.1195 31.3805 10 30 10ZM22.5 2.5C21.1195 2.5 20 3.61953 20 5C20 6.38047 21.1195 7.5 22.5 7.5C23.8805 7.5 25 6.38047 25 5C25 3.61953 23.8805 2.5 22.5 2.5ZM30 2.5C28.6195 2.5 27.5 3.61953 27.5 5C27.5 6.38047 28.6195 7.5 30 7.5C31.3805 7.5 32.5 6.38047 32.5 5C32.5 3.61953 31.3805 2.5 30 2.5ZM37.5 17.5C36.1195 17.5 35 18.6195 35 20C35 21.3805 36.1195 22.5 37.5 22.5C38.8805 22.5 40 21.3805 40 20C40 18.6195 38.8805 17.5 37.5 17.5Z" fill="#F1672C"/>
</svg>
