<svg width="60" height="48" viewBox="0 0 60 48" fill="none" xmlns="http://www.w3.org/2000/svg">
<g clip-path="url(#clip0)">
<path d="M57 0H15C13.3434 0 12 1.23094 12 2.74969V12H24V3H48V30H45V33H57C58.6566 33 60 31.7691 60 30.2503V2.74969C60 1.23094 58.6566 0 57 0ZM21 9H15V3H21V9ZM57 30H51V24H57V30ZM57 21H51V12H57V21ZM57 9H51V3H57V9ZM39 15H3C2.20435 15 1.44129 15.3161 0.87868 15.8787C0.316071 16.4413 0 17.2044 0 18L0 45C0 45.7957 0.316071 46.5587 0.87868 47.1213C1.44129 47.6839 2.20435 48 3 48H39C39.7957 48 40.5587 47.6839 41.1213 47.1213C41.6839 46.5587 42 45.7957 42 45V18C42 17.2044 41.6839 16.4413 41.1213 15.8787C40.5587 15.3161 39.7957 15 39 15ZM39 45H3V42.75L10.6584 37.0069L18.1584 40.7569L30.0497 31.8375L39 37.8028V45ZM39 34.1972L29.9503 28.1634L17.8416 37.2441L10.3416 33.4941L3 39V18H39V34.1972ZM10.5 30C11.39 30 12.26 29.7361 13.0001 29.2416C13.7401 28.7471 14.3169 28.0443 14.6575 27.2221C14.9981 26.3998 15.0872 25.495 14.9135 24.6221C14.7399 23.7492 14.3113 22.9474 13.682 22.318C13.0526 21.6887 12.2508 21.2601 11.3779 21.0865C10.505 20.9128 9.60019 21.0019 8.77792 21.3425C7.95566 21.6831 7.25285 22.2599 6.75839 22.9999C6.26392 23.74 6 24.61 6 25.5C6 26.6935 6.47411 27.8381 7.31802 28.682C8.16193 29.5259 9.30653 30 10.5 30ZM10.5 24C10.7967 24 11.0867 24.088 11.3334 24.2528C11.58 24.4176 11.7723 24.6519 11.8858 24.926C11.9994 25.2001 12.0291 25.5017 11.9712 25.7926C11.9133 26.0836 11.7704 26.3509 11.5607 26.5607C11.3509 26.7704 11.0836 26.9133 10.7926 26.9712C10.5017 27.0291 10.2001 26.9994 9.92597 26.8858C9.65189 26.7723 9.41762 26.58 9.2528 26.3334C9.08797 26.0867 9 25.7967 9 25.5C9 25.1022 9.15804 24.7206 9.43934 24.4393C9.72064 24.158 10.1022 24 10.5 24Z" fill="#F16B32"/>
</g>
<defs>
<clipPath id="clip0">
<rect width="60" height="48" fill="white"/>
</clipPath>
</defs>
</svg>
