<?xml version="1.0" encoding="utf-8"?>
<!-- Generator: Adobe Illustrator 25.2.3, SVG Export Plug-In . SVG Version: 6.00 Build 0)  -->
<svg version="1.0" id="Layer_1" xmlns="http://www.w3.org/2000/svg" xmlns:xlink="http://www.w3.org/1999/xlink" x="0px" y="0px"
	 viewBox="0 0 800 500" style="enable-background:new 0 0 800 500;" xml:space="preserve">
<g>
	<path style="fill:#E9F5DF;" d="M158.88,295.15c-2.84-6.42-5.54-12.4-9.63-18.14c-2.16,13.02,2.07,26.91,11.05,36.69
		c-5.05-2.99-10.17-5.86-15.35-8.63c0.06-6.79-3.91-13.55-7.83-19.15c-4.05-5.78-9.25-10.06-16.04-12.22
		c2.55,11.28,11.46,22.19,20.88,29.77c-6.87-3.59-13.86-6.96-20.94-10.13C108.54,275.97,81,278.69,81,278.69
		c15.06,17.45,34.52,16.42,39.51,15.82c7.67,3.44,15.23,7.13,22.66,11.05c-11.3-1.85-21.76-2.5-33.11-0.5
		c10.25,5.52,23.21,5.83,33.73,0.84c5.87,3.12,11.66,6.39,17.37,9.8c-13.38-3.26-27.03-1.05-38.31,6.78
		c6.28,2.99,13.52,3.98,20.39,2.78c6.84-1.19,13.27-4.55,18.11-9.45c5.52,3.3,10.95,6.74,16.3,10.3
		c-19.72-6.06-36.83,12.4-36.83,12.4c22.45,7.38,36.45-8.02,38.91-11.03c4.94,3.34,9.8,6.79,14.58,10.34
		c-19.46-2.78-35.69,12.18-35.69,12.18c18.54,6.63,33.88-8.57,36.61-11.5c6.67,4.99,13.17,10.19,19.51,15.57
		c-22.67-4.84-41.19,7.96-41.19,7.96c26.49,8.01,39.69-4.54,42.11-7.18c6.37,5.45,12.55,11.1,18.56,16.94
		c-24.48-5.97-46.56,8.41-46.56,8.41c22.2,5.42,43.47-5.66,47.23-7.76c4.15,4.05,8.21,8.19,12.18,12.41
		c-20.07-7.96-42.61,6.79-42.61,6.79c24.11,7.09,40.52-3.57,43.56-5.78c5.2,5.57,10.23,11.29,15.09,17.15
		c-25.91-9.05-47.16,11.09-47.16,11.09c27.08,5.49,44.73-7.67,47.86-10.24c6.54,7.91,12.78,16.07,18.67,24.46
		c-23.71-13.9-52.37-0.34-52.37-0.34c31.44,15.09,49.98,3.82,53.22,1.54c12.12,17.41,22.8,35.79,31.83,54.95
		c0.15,0.32,0.54,0.46,0.86,0.31c0.19-0.09,0.32-0.25,0.36-0.44c0.03-0.13,0.02-0.28-0.04-0.41c-9.11-19.32-19.89-37.85-32.12-55.4
		c17.65-27.97,2.03-55.57,2.03-55.57c-12.25,26.31-7.11,45.31-4.05,52.73c-5.56-7.82-11.4-15.43-17.52-22.82
		c18.54-29.29,0.8-61.37,0.8-61.37c-10.28,28.6-3.74,53.77-1.7,60.29c-4.8-5.76-9.77-11.4-14.9-16.89
		c15-25.76,3.89-50.31,3.89-50.31c-10.52,26.36-6.35,44.33-4.74,49.41c-4.01-4.26-8.1-8.44-12.29-12.52
		c12.79-30.14-8.39-61.29-8.39-61.29c-7.84,32.36,1.79,52.25,6.17,59.16c-5.59-5.37-11.33-10.58-17.23-15.62
		c9.21-27.05-10.45-53.08-10.45-53.08c-6.18,27.56,3.51,44.82,8.07,51.08c-5.86-4.92-11.84-9.7-17.98-14.28
		c8.55-17.98-7.1-42.95-7.1-42.95c-5.54,22.76,2.1,36.92,5.42,41.71c-4.62-3.42-9.31-6.74-14.08-9.96
		c0.55-8.55-0.06-13.52-1.77-20.43c-1.76-7.12-6.37-13.9-11.19-19.48c-1.39,13.69,3.32,28,11.69,39.08
		c-5.51-3.69-11.12-7.23-16.81-10.64C162.96,308.07,161.63,301.35,158.88,295.15z"/>
</g>
<g>
	<g>
		<path style="fill:#E9F5DF;" d="M447.34,280.9c-7.96-11.5-10.07-26.07-9.33-39.97c0.51-9.58,2.26-19.03,3.95-28.46
			c1.4-7.84,4.69-18.04,0.59-25.57c-3.22-5.92-11.13-8.77-17.09-4.95c-5.85,3.74-5.9,10.02-5.92,16.18
			c-0.01,3.76-0.25,8.75-2.59,11.9c-3.39,4.56-9.59,2.16-11.78-2.45c-9.24-19.49-4.47-45.43,2.79-64.82
			c1.6-4.27,3.46-8.48,4.42-12.94c1.99-9.22-1.58-21.15-12.36-22.91c-6.36-1.04-13.21,2.59-15.83,8.39
			c-3.26,7.23-0.12,15.77-1.89,23.48c-0.25,1.08-0.61,2.17-1.33,3.02c-1.9,2.22-5.74,1.85-7.93-0.1c-4.9-4.36-4.86-13.95-4.61-19.9
			c0.29-6.89,1.99-13.73,5.06-19.93c2.46-4.98,5.4-10.1,5.24-15.8c-0.21-7.38-8.51-10.19-13.71-5.3c-3,2.82-4.01,6.95-6.84,9.88
			c-5,5.18-7.06-5.84-7.29-8.67c-0.42-5.22,0.65-10.8-0.35-15.95c-1.3-6.68-7.93-15.87-15.52-13.61
			c-9.56,2.84-10.54,12.97-4.3,22.06c4.42,6.43,10.58,11.85,13.72,19.09c2.64,6.07,2.33,20.04-7.76,14.04
			c-3.52-2.09-7.39-3.61-11.41-4.48c-3.94-0.85-8.42-0.96-11.61,1.47c-4.63,3.53-4.23,10.94-0.8,15.61
			c3.43,4.67,8.95,7.32,14.15,9.95c18.22,9.23,36.39,21.69,43.83,40.49c1.12,2.83,1.93,6.15,0.41,8.79
			c-1.61,2.77-5.35,3.73-8.54,3.14c-10.12-1.88-17.07-10.09-26.58-13.28c-9.22-3.09-20.37,0.24-20.03,11.43
			c0.45,14.56,17.38,20.92,29.11,24.92c15.95,5.43,32.07,11.76,46.95,19.7c4.51,2.41,11.87,10.03,3.35,12.87
			c-6.38,2.12-13.3,1.55-19.74,3.39c-15.32,4.39-12.86,21.72,0.87,26.48c13.46,4.67,27.9-1.67,41.59-1.28
			c11.39,0.33,21.49,7.38,30.27,14.52"/>
	</g>
	<g>
		<path style="fill:#D5EBC1;" d="M378.34,253.69c-0.02-0.42,0.31-0.77,0.73-0.78c2.79-0.12,5.51-0.33,8.15-0.54
			c7.98-0.62,15.52-1.21,23.78,0.76c9.08,2.17,16.27,5.32,22.07,9.71c-2.62-3.54-5.19-7.12-7.72-10.72
			c-23.29-30.46-52.3-52.63-84.57-64.47c-0.4-0.15-0.6-0.58-0.45-0.97c0.15-0.39,0.59-0.59,0.98-0.44
			c27.9,10.24,53.38,28.12,74.87,52.36c-15.79-24.1-29.59-49.46-41.22-75.76c-0.01-0.02-0.03-0.04-0.04-0.06
			c-9.62-20.59-29.47-40.32-49.39-49.09c-0.39-0.17-0.56-0.61-0.39-0.99c0.17-0.38,0.62-0.55,1.01-0.38
			c16.35,7.2,32.65,21.66,43.45,37.97c-3.1-7.53-6.02-15.13-8.77-22.8c-0.03-0.06-0.06-0.12-0.07-0.19c0,0,0-0.01,0-0.01
			c-7.21-20.17-13.19-40.76-17.84-61.64c-0.09-0.41,0.17-0.81,0.58-0.9c0.41-0.09,0.82,0.17,0.91,0.57
			c4.2,18.88,9.5,37.53,15.81,55.85c-0.31-10.62,2.38-22.54,7.49-32.42c0.19-0.37,0.65-0.52,1.03-0.33
			c0.38,0.19,0.53,0.64,0.33,1.01c-5.96,11.53-8.57,25.88-6.83,37.5c9.09,25.41,20.17,50.14,33.09,73.89
			c-8.95-29.66-7.45-53.26,4.66-75.68c0.2-0.37,0.66-0.51,1.03-0.31c0.37,0.19,0.51,0.65,0.32,1.02
			c-12.9,23.88-13.55,49.17-2.13,81.98c8.4,14.89,17.53,29.38,27.35,43.39c1.01,1.32,2.01,2.66,3,4.01
			c-8.18-19.75-6.93-38.44,3.77-58.18c0.2-0.37,0.66-0.51,1.03-0.31c0.37,0.2,0.51,0.65,0.31,1.02
			c-11.87,21.9-11.86,42.48,0.02,64.75c5.49,7.41,11.17,14.69,17.06,21.8c0.25,0.3,0.22,0.74-0.05,1.01
			c-0.02,0.02-0.04,0.03-0.06,0.05c-0.33,0.26-0.81,0.21-1.08-0.11c-4.27-5.16-8.43-10.41-12.5-15.73
			c-0.01-0.01-0.03-0.02-0.04-0.03c-6.43-7.25-15.15-11.99-27.43-14.92c-8.02-1.91-15.44-1.33-23.29-0.72
			c-2.65,0.21-5.38,0.42-8.2,0.54C378.71,254.43,378.36,254.11,378.34,253.69z"/>
	</g>
</g>
<linearGradient id="SVGID_1_" gradientUnits="userSpaceOnUse" x1="194.7455" y1="147.5028" x2="522.0411" y2="615.0679">
	<stop  offset="4.475343e-07" style="stop-color:#2E4856"/>
	<stop  offset="1" style="stop-color:#539182"/>
</linearGradient>
<path style="fill:url(#SVGID_1_);" d="M158.69,373.12c158.14,2.77,270.66-27.2,267.08-124.53c-7.42-202.1,170.4-233.41,216.5-60.42
	c26.14,98.1,4.28,134.91,28.04,195.54C712.31,490.87,800,500.18,800,500.18L6.52,500.62C6.52,500.62,0.55,370.35,158.69,373.12z"/>
<linearGradient id="SVGID_2_" gradientUnits="userSpaceOnUse" x1="648.6236" y1="609.7826" x2="292.0674" y2="247.8589">
	<stop  offset="4.475343e-07" style="stop-color:#2E4856"/>
	<stop  offset="1" style="stop-color:#539182"/>
</linearGradient>
<path style="fill:url(#SVGID_2_);" d="M121.12,482.03c0,0,35.25-85.4,153.41-97.02c114.88-11.29,155.2-19.28,174.71-104.38
	c10.18-44.38-41.6-141.23,28.23-173.32c48.97-22.5,103.15-11.26,130.1,33.27c40.09,66.25,35.17,177.3,54.18,239.63
	c28.38,93.08,119.76,119.79,119.76,119.79l-665.77,0.13L121.12,482.03z"/>
<linearGradient id="SVGID_3_" gradientUnits="userSpaceOnUse" x1="505.5177" y1="500.0795" x2="505.5177" y2="143.2785">
	<stop  offset="4.475343e-07" style="stop-color:#2E4856"/>
	<stop  offset="1" style="stop-color:#539182"/>
</linearGradient>
<path style="fill:url(#SVGID_3_);" d="M386.06,392.82c169.14-25.78,26.87-238.92,140.01-255.56
	c95.31-14.02,81.55,151.1,120.95,255.68c30.74,81.59,124.99,107.22,124.99,107.22l-532.99,0.46
	C239.02,500.62,268.71,410.7,386.06,392.82z"/>
<g>
	<g>
		<path style="fill:#367447;" d="M446.6,502.55c-5.97-10.01-6.72-22.48-13.11-32.24c-7.05-10.76-19.66-16.41-31.59-21.5
			c-11.68-4.99-23.35-9.97-35.03-14.96c-12-5.12-24.39-10.52-33.17-20.06c-19.83-21.56-14.74-55.53-35.64-76.61
			c-4.41-4.45-10.33-7.78-16.64-7.78c-23.64,0.01-17.83,34.07-12.94,47.84c11.98,33.7,42.76,70.61,77.29,83.55
			c18.78,7.04,40.63,7.77,56.17,20.31c6.98,5.63,12.03,13.19,18.2,19.67c11.13,11.68,26.08,19.79,42.07,22.8
			c8.43,1.59,17.9,1.55,24.67-3.64c-4.36,3.35-17.58-0.55-22.18-2.32C457.21,514.72,450.67,509.37,446.6,502.55z"/>
	</g>
	<g>
		<path style="fill:#165A2C;" d="M488.61,518.77c-0.05,0.17-0.16,0.32-0.34,0.4c-17.8,8.56-39.09-1.56-51.92-12.83
			c-5.78-5.08-8.68-10.81-11.48-16.35c-4.01-7.92-8.15-16.1-20.95-22.56c-7.87-3.97-17.64-7.86-27.09-11.62
			c-10.28-4.09-20.9-8.32-29.38-12.76c-43.77-22.88-57.27-54.18-64.86-97.27c-0.06-0.35,0.17-0.67,0.52-0.73
			c0.35-0.06,0.68,0.17,0.74,0.51c7.53,42.71,20.89,73.73,64.2,96.37c8.42,4.4,19.02,8.62,29.26,12.7
			c9.48,3.77,19.28,7.68,27.2,11.67c13.18,6.65,17.42,15.02,21.52,23.12c2.88,5.68,5.59,11.05,11.19,15.97
			c12.53,11.01,33.27,20.93,50.5,12.64c0.32-0.15,0.7-0.02,0.86,0.29C488.64,518.47,488.65,518.63,488.61,518.77z"/>
	</g>
</g>
<g>
	<g>
		<path style="fill:#346647;" d="M597.9,326.5c-41.43-94.4-122-187.12-189.26-208.73c0,0,13.52,38.6,50.72,105.52
			c37.21,66.93,72.83,117.24,72.83,117.24L597.9,326.5z"/>
	</g>
	<g>
		<path style="fill:#1E5A43;" d="M409.38,119.78c6.47,6.17,12.98,12.74,19.52,19.69l-12.4-2.16c0.29,0.67,0.58,1.34,0.88,2.05
			l13.65,2.38c7.63,8.2,15.28,16.9,22.92,26.04l-24.93-2.97c0.31,0.65,0.64,1.33,0.96,1.99l25.71,3.07
			c12.61,15.21,25.16,31.61,37.43,48.92l-42.14-10.84c0.4,0.74,0.79,1.48,1.2,2.23l42.59,10.96c1.5,2.13,2.99,4.27,4.49,6.42
			l-42.84-9.61c0.4,0.72,0.8,1.45,1.2,2.18l43.2,9.69c8.08,11.76,16.03,23.89,23.77,36.31l-46.75-10.65
			c0.44,0.74,0.87,1.48,1.31,2.21l46.82,10.66c9.87,15.94,19.42,32.34,28.49,49.04c0.25,0.45,0.82,0.62,1.28,0.38
			c0.46-0.24,0.64-0.81,0.39-1.26c-5.01-9.21-10.16-18.33-15.43-27.34l16.64-36.63c-0.41-0.62-0.82-1.23-1.23-1.85l-16.57,36.48
			c-1.68-2.86-3.38-5.71-5.09-8.55l16.39-35.67c-0.42-0.6-0.83-1.2-1.25-1.8l-16.32,35.52c-8.29-13.71-16.83-27.11-25.56-40.09
			l14.04-31.65c-0.45-0.53-0.9-1.06-1.36-1.6l-13.93,31.4c-10.83-16.01-21.93-31.37-33.15-45.88l9.19-24.72
			c-0.5-0.45-1.01-0.91-1.51-1.36l-9.04,24.32c-4.95-6.36-9.91-12.55-14.89-18.55c-0.06-0.11-0.14-0.21-0.24-0.29
			c-3.51-4.23-7.02-8.35-10.54-12.39l3.9-17.16c-0.56-0.38-1.12-0.75-1.69-1.12l-3.75,16.52c-1.06-1.21-2.12-2.41-3.18-3.6
			l2.74-15.61c-0.58-0.36-1.16-0.71-1.73-1.06l-2.61,14.89c-2.53-2.82-5.06-5.6-7.59-8.32c-0.07-0.11-0.15-0.2-0.26-0.28
			c-7.16-7.68-14.29-14.9-21.36-21.65c-0.7-0.24-1.39-0.48-2.08-0.7C408.64,117.77,408.88,118.46,409.38,119.78z"/>
	</g>
</g>
<g>
	<g>
		<path style="fill:#446649;" d="M242.94,362.73c1.93,7.99,14.62,7.45,18.64,14.66c3.76,6.75,2.01,13.14,5.71,19.91
			c7,12.8,25.88,13.82,35.82,24.57c7.6,8.23,8.69,20.79,16.16,29.13c12.58,14.03,38.01,10.93,49.7,25.68
			c5.59,7.05,6.59,16.6,10.77,24.55c2.5,4.76,6.1,8.85,9.66,12.9c-13.15-4.49-26.77-7.63-40.57-9.36c-7.77-0.97-16.2-1.74-22.03-6.9
			c-3.31-2.93-5.38-6.97-8.29-10.29c-7.61-8.66-19.83-11.38-30.94-14.78c-11.11-3.4-23.08-9.19-26.53-20.12
			c-1.3-4.12-1.2-8.56-2.32-12.73c-2.52-9.38-10.65-16.04-17.72-22.79c-7.07-6.75-13.9-15.51-12.58-25.12
			c0.84-6.12,4.91-12.45,2.14-17.99c-1.67-3.34-5.49-5.29-7.03-8.69c-3.61-7.95,4.25-18.69,3.8-25.61
			C229.46,347.72,238.81,345.62,242.94,362.73z"/>
	</g>
	<g>
		<path style="fill:#295A3A;" d="M380.68,508.51c-0.16,0.06-0.35,0.06-0.52-0.03c-60.55-33.86-120.56-68.43-150.64-155.69
			c-0.11-0.32,0.07-0.67,0.39-0.79c0.01,0,0.02-0.01,0.02-0.01c0.34-0.11,0.7,0.08,0.81,0.41c28.46,86.91,84.77,121.6,150.01,154.95
			c0.32,0.16,0.44,0.55,0.28,0.86C380.95,508.35,380.82,508.46,380.68,508.51z"/>
	</g>
</g>
<g>
	<g>
		<path style="fill:#366652;" d="M436.43,63.72c12.36,11.06-0.87,32.45,8.07,46.34c8.38,13.02,21.45,16.17,29.94,29.12
			c16.01,24.46-0.42,58.03,9.11,85.57c7.3,21.08,28.62,35.09,36.23,56.06c12.81,35.27-17.29,76.16-2.34,110.61
			c7.15,16.48,23.18,27.43,33.29,42.33c6.05,8.92,9.87,19.08,13.63,29.14c4.71-27.03,12.3-53.57,22.58-79.06
			c5.79-14.35,12.57-29.64,9.02-44.68c-2.02-8.55-7.22-16.02-10.31-24.26c-8.07-21.5-1.08-45.23,3.61-67.68
			c4.69-22.45,5.97-48.72-10.18-65.24c-6.09-6.23-14.08-10.35-20.43-16.32c-14.26-13.42-18.25-33.89-23.44-52.63
			c-5.19-18.74-14.18-38.99-32.58-46c-11.71-4.46-26.93-3.56-34.1-13.71c-4.33-6.12-4.12-14.59-8.69-20.54
			c-10.67-13.91-37.39-10.75-49.28-18.22C422.75,25.94,409.95,40.03,436.43,63.72z"/>
	</g>
	<g>
		<path style="fill:#175A4D;" d="M562.81,442.4c0.26-0.23,0.45-0.56,0.44-0.93c-1.73-137.23-5.24-274.24-131.54-410.54
			c-0.47-0.51-1.27-0.53-1.79-0.09c-0.01,0.01-0.03,0.02-0.04,0.03c-0.52,0.48-0.54,1.29-0.06,1.8
			c127.24,133.17,134.54,263.9,130.84,408.73c-0.02,0.7,0.55,1.29,1.26,1.3C562.27,442.72,562.58,442.6,562.81,442.4z"/>
	</g>
</g>
<g>
	<g>
		<path style="fill:#446649;" d="M541.99,499.16c-65.88-66.47-164.23-119.09-228.05-115.96c0,0,24.05,28.27,77.37,72.9
			c53.32,44.64,99.85,75.77,99.85,75.77L541.99,499.16z"/>
	</g>
	<g>
		<path style="fill:#295A3A;" d="M315.21,384.66c7.47,3.15,15.13,6.62,22.92,10.41l-11.17,2.12c0.46,0.47,0.93,0.95,1.41,1.45
			l12.29-2.33c9.12,4.49,18.43,9.4,27.87,14.69l-22,5.41c0.48,0.45,0.97,0.92,1.46,1.37l22.7-5.58
			c15.62,8.83,31.58,18.68,47.6,29.38l-39.1,4.24c0.58,0.5,1.16,1,1.75,1.5l39.52-4.29c1.96,1.32,3.93,2.65,5.89,3.99l-39.29,5.5
			c0.57,0.48,1.15,0.97,1.73,1.46l39.61-5.55c10.67,7.35,21.35,15.06,31.95,23.08l-42.93,5.87c0.61,0.49,1.22,0.97,1.83,1.45
			l42.99-5.87c13.55,10.31,26.98,21.11,40.1,32.32c0.36,0.3,0.9,0.27,1.2-0.08c0.31-0.35,0.27-0.88-0.09-1.19
			c-7.24-6.18-14.58-12.24-21.97-18.16l2.03-36.18c-0.55-0.39-1.1-0.78-1.65-1.17l-2.02,36.03c-2.36-1.88-4.73-3.74-7.1-5.6
			l2.13-35.3c-0.55-0.37-1.09-0.75-1.64-1.12l-2.12,35.15c-11.48-8.93-23.08-17.52-34.7-25.7l1.47-31.16
			c-0.56-0.31-1.11-0.61-1.67-0.92l-1.46,30.91c-14.38-10.07-28.78-19.5-43-28.17l-0.35-23.77c-0.57-0.22-1.15-0.45-1.72-0.66
			l0.34,23.38c-6.26-3.79-12.48-7.44-18.64-10.92c-0.09-0.07-0.19-0.13-0.3-0.17c-4.35-2.45-8.66-4.82-12.95-7.11l-2.34-15.71
			c-0.6-0.14-1.19-0.27-1.79-0.41l2.25,15.12c-1.29-0.68-2.58-1.36-3.86-2.03l-2.8-14.04c-0.61-0.12-1.21-0.23-1.81-0.35l2.67,13.39
			c-3.06-1.58-6.11-3.12-9.13-4.61c-0.09-0.07-0.2-0.12-0.31-0.15c-8.55-4.2-16.94-8.03-25.11-11.48c-0.66,0.02-1.33,0.04-1.99,0.07
			C313.93,383.21,314.36,383.71,315.21,384.66z"/>
	</g>
</g>
<g>
	<g>
		<path style="fill:#437451;" d="M187.28,487.73c-7-6.75-10.35-16.6-17.63-23.06c-8.02-7.12-19.38-8.95-30.06-10.47
			c-10.46-1.5-20.91-2.99-31.37-4.49c-10.75-1.54-21.86-3.2-31.01-8.98c-20.65-13.05-24.09-41.39-45.49-53.82
			c-4.51-2.62-10-4.03-15.05-2.67c-18.94,5.08-6.76,31.16,0.21,41.16c17.04,24.47,49.86,47.48,80.39,50.46
			c16.6,1.62,34.27-2.48,49.49,4.24c6.83,3.02,12.55,8,18.93,11.87c11.5,6.99,25.27,10.28,38.74,9.27c7.1-0.53,14.69-2.6,18.96-8.21
			c-2.75,3.62-14.2,3.33-18.28,2.9C198.46,495.21,192.05,492.33,187.28,487.73z"/>
	</g>
	<g>
		<path style="fill:#295A3A;" d="M224.52,491.73c0,0.15-0.06,0.29-0.18,0.39c-12.37,10.69-31.66,7.13-44.43,0.84
			c-5.75-2.84-9.34-6.81-12.81-10.65c-4.96-5.49-10.09-11.17-21.77-13.61c-7.18-1.5-15.87-2.52-24.28-3.51
			c-9.14-1.08-18.59-2.19-26.36-3.93c-40.12-8.97-57.86-31.19-73.47-64.13c-0.13-0.26-0.01-0.58,0.26-0.7
			c0.27-0.12,0.58-0.01,0.71,0.25c15.47,32.65,33.04,54.68,72.74,63.55c7.72,1.73,17.14,2.84,26.25,3.91
			c8.43,0.99,17.14,2.02,24.37,3.53c12.03,2.51,17.27,8.32,22.35,13.94c3.56,3.94,6.92,7.67,12.49,10.41
			c12.47,6.15,31.28,9.65,43.25-0.69c0.22-0.19,0.56-0.17,0.75,0.05C224.48,491.48,224.52,491.61,224.52,491.73z"/>
	</g>
</g>
<g>
	<path style="fill:#325A50;" d="M152.33,456.29c39.72,46.15,114.11,73.37,175.07,80.53c-9.86-56.41-50.14-111.71-68.76-130.38
		c-21.14-21.2-48.4-35.74-76.92-45.38c-28.52-9.65-59.16-12.82-89.02-16.97C105.6,384.65,124.44,423.88,152.33,456.29z"/>
</g>
<g>
	<path style="fill:#143D2C;" d="M130.88,349.41c-0.56-0.09-1.12-0.17-1.68-0.26l9.54,36.3c-4.04-3.64-8.12-7.33-12.25-11.09
		l-8.28-26.81c-0.57-0.08-1.14-0.16-1.71-0.24l7.71,24.97c-6.15-5.62-12.4-11.39-18.74-17.29c0.02-0.06,0.03-0.12,0.03-0.18
		c0-0.08-0.01-0.16-0.03-0.24l-2.78-9.12c-0.57-0.08-1.13-0.15-1.7-0.23l2.38,7.82c-3.09-2.89-6.21-5.81-9.34-8.76
		c-0.44-0.06-0.88-0.12-1.33-0.18c0.16,0.51,0.33,1.02,0.49,1.53c5.35,5.04,10.64,9.99,15.87,14.84l-11.21-1.12
		c0.19,0.54,0.39,1.07,0.59,1.61l12.49,1.25c4.81,4.45,9.56,8.82,14.26,13.1c0.04,0.04,0.08,0.08,0.12,0.11
		c4.79,4.37,9.53,8.65,14.2,12.85c0.05,0.06,0.11,0.12,0.18,0.16c2.89,2.59,5.75,5.16,8.6,7.69L112,393.38
		c0.25,0.54,0.51,1.07,0.77,1.6l37.45,2.81c2.44,2.17,4.87,4.31,7.27,6.43l-40.82-1.43c0.27,0.52,0.55,1.05,0.82,1.57l41.83,1.47
		c5.6,4.92,11.1,9.71,16.51,14.38c0.08,0.11,0.18,0.2,0.3,0.26c3.45,2.98,6.88,5.91,10.25,8.79l-53.57,1.14
		c0.34,0.51,0.68,1.01,1.02,1.52l54.32-1.16c8.26,7.02,16.28,13.74,24.07,20.16c0.09,0.13,0.21,0.23,0.35,0.29
		c5.7,4.7,11.27,9.25,16.72,13.64l-66.4,2.49c0.52,0.5,1.04,0.99,1.57,1.48l66.66-2.5c2.68,2.16,5.33,4.28,7.94,6.36l-66.14,3.52
		c0.59,0.49,1.19,0.97,1.79,1.45l66.16-3.52c3.84,3.05,7.61,6.02,11.31,8.91c0.09,0.13,0.21,0.23,0.36,0.28
		c5.1,3.98,10.06,7.82,14.88,11.5l-60.31,4.25c0.84,0.46,1.67,0.92,2.51,1.37l59.49-4.19c0.05,0,0.09-0.02,0.13-0.03
		c1.79,1.36,3.55,2.7,5.3,4.02c0.08,0.1,0.18,0.18,0.3,0.23c2.3,1.74,4.57,3.44,6.81,5.11l-52.49,4.4c0.99,0.44,1.98,0.87,2.97,1.3
		l51.38-4.31c15.45,11.5,29.2,21.3,41.15,29.52c0.92,0.12,1.83,0.23,2.74,0.33c-0.02-0.13-0.05-0.25-0.07-0.38
		c-0.38-0.26-0.76-0.52-1.15-0.79c-14.22-9.77-31.04-21.81-50.26-36.32l-1.4-74.34c-0.54-0.7-1.07-1.39-1.6-2.07l1.42,75.22
		c-6.64-5.02-13.56-10.34-20.75-15.96l-2.19-82.54c-0.53-0.47-1.06-0.93-1.6-1.39l2.19,82.68c-12.05-9.43-24.85-19.71-38.38-30.87
		l-7.37-79.27c-0.55-0.25-1.09-0.5-1.64-0.75l7.31,78.62c-11.1-9.17-22.68-18.94-34.72-29.32l-9.22-62.43
		c-0.55-0.15-1.09-0.29-1.64-0.43l9.05,61.3c-11.13-9.61-22.65-19.75-34.54-30.43L130.88,349.41z"/>
</g>
<g>
	<g>
		<path style="fill:#437451;" d="M426.57,296.15c-1.94,4.16-3.65,8.38-3.44,13.05c0.41,9.19,6.61,17.22,13.35,23.09
			c8.99,7.81,24.74,16.57,25.32,29.93c0.45,10.53-10.93,18.82-10.64,29.36c0.23,8.24,7.4,14.42,13.98,19.52
			c6.58,5.1,13.74,11.3,13.93,19.54c0.18,7.65-4.06,14.24-3.29,22.04c0.86,8.67,5.65,15.95,12.49,21.46
			c7.26,5.85,16.2,9.32,25.25,11.76c8.17,2.2,17.04,3.88,23.05,9.75c6.51,6.35,8.17,16.25,14.22,23.02
			c6.21,6.95,16.96,9.55,25.73,6.23c8.78-3.32,14.98-12.35,14.86-21.6c-0.08-5.93-2.49-11.59-3.27-17.48
			c-2.13-16.07,7.51-28.04,13.74-41.64c5.31-11.58,1.9-26.91-6.92-35.88c-7.64-7.76-19.56-12.55-22.47-22.97
			c-2.74-9.82,4.06-19.9,3.46-30.07c-1.11-18.98-21.48-24.89-36-31.31c-5.92-2.62-11.71-6.34-14.69-12.02
			c-6.2-11.8,1.77-25.79-5.07-37.54c-4.93-8.47-15.59-10.77-24.63-12.09c-6.28-0.92-12.72-1.65-18.48-4.28
			c-5.76-2.63-10.86-7.6-11.7-13.8c-1.31-9.63,5.97-20.92-5.08-27.61c-5.14-3.11-11.69-2.25-17.64-3.31
			c-8.27-1.47-14.73-6.86-18.87-13.86c-2.85-4.83-5.83-12.47-13.19-11.12c-10.8,1.98-1.85,18.39-0.25,24.34
			c3.5,13.02-12.54,21.36-6.95,34.59c6.16,14.57,31.4,17.47,28.02,36.4C430.61,288.04,428.47,292.07,426.57,296.15z"/>
	</g>
	<g>
		<g>
			<path style="fill:#1E4C20;" d="M469.08,379.94c1,0.53,1.38,1.75,0.85,2.74s-1.78,1.36-2.78,0.84c-1-0.53-1.38-1.75-0.85-2.74
				S468.07,379.41,469.08,379.94z"/>
		</g>
		<g>
			<path style="fill:#1E4C20;" d="M472.17,367.23c0.54,0.28,0.74,0.94,0.46,1.47c-0.29,0.53-0.95,0.73-1.49,0.45
				c-0.54-0.28-0.74-0.94-0.46-1.47C470.97,367.15,471.64,366.95,472.17,367.23z"/>
		</g>
		<g>
			<path style="fill:#1E4C20;" d="M478.89,379.38c0.47,0.25,0.65,0.82,0.4,1.28s-0.83,0.64-1.3,0.39c-0.47-0.25-0.65-0.82-0.4-1.28
				S478.42,379.13,478.89,379.38z"/>
		</g>
		<g>
			<ellipse style="fill:#1E4C20;" cx="439.73" cy="272.52" rx="1.53" ry="1.5"/>
		</g>
		<g>
			<path style="fill:#1E4C20;" d="M417.55,226.39c0.73,0.38,1,1.27,0.62,1.98s-1.29,0.99-2.01,0.61c-0.73-0.38-1-1.27-0.62-1.98
				S416.83,226.01,417.55,226.39z"/>
		</g>
		<g>
			<path style="fill:#1E4C20;" d="M450.99,226.81c0.58,0.3,0.8,1.01,0.49,1.58c-0.31,0.57-1.03,0.79-1.6,0.48
				c-0.58-0.3-0.8-1.01-0.49-1.58C449.7,226.73,450.41,226.51,450.99,226.81z"/>
		</g>
		<g>
			<ellipse style="fill:#1E4C20;" cx="511.76" cy="290.34" rx="1.74" ry="1.71"/>
		</g>
		<g>
			<path style="fill:#1E4C20;" d="M540.57,335.38c0.74,0.39,1.02,1.29,0.62,2.01c-0.39,0.72-1.31,1-2.04,0.61
				c-0.74-0.39-1.02-1.28-0.62-2.01C538.92,335.27,539.84,335,540.57,335.38z"/>
		</g>
	</g>
	<g>
		<g>
			<path style="fill:#245924;" d="M461.81,217.67l-11.9,50.82c-13.46-25.76-26.99-52.34-40.61-79.83c-0.53,0.18-0.99,0.41-1.4,0.68
				c11.16,22.51,22.25,44.42,33.29,65.77l-38.31-18.1c-0.15,0.5-0.28,1.01-0.38,1.52l39.86,18.83c2.36,4.56,4.73,9.1,7.09,13.61
				c0.02,0.07,0.06,0.14,0.11,0.2c3.94,7.52,7.87,14.98,11.8,22.36c0.03,0.07,0.06,0.14,0.11,0.2c5.07,9.53,10.14,18.94,15.2,28.24
				c0.03,0.08,0.07,0.15,0.12,0.22c5.1,9.37,10.2,18.63,15.29,27.78l-66.54-31.48c0.36,0.77,0.75,1.52,1.17,2.26l66.67,31.54
				c1.8,3.23,3.61,6.45,5.41,9.66l-63.3-30.57c0.34,0.31,0.67,0.61,1.01,0.91c1.19,1.04,2.51,2.09,3.89,3.17l59.71,28.84
				c11.59,20.57,23.17,40.59,34.78,60.1l-83.66-34.29c-0.03,0.48-0.05,0.97-0.04,1.46c0,0.06,0.01,0.13,0.01,0.19l85,34.84
				c3.04,5.1,6.08,10.17,9.12,15.2c0.01,0.02,0.03,0.04,0.04,0.07c3.63,6,7.26,11.95,10.89,17.85l-77.77-32.93
				c0.18,0.6,0.32,1.22,0.42,1.85l78.74,33.34c8.52,13.81,17.06,27.37,25.63,40.68c0.23,0.36,0.71,0.46,1.08,0.24
				c0.12-0.07,0.21-0.17,0.27-0.29c0.13-0.24,0.13-0.53-0.03-0.77c-5.59-8.68-11.16-17.47-16.73-26.36l22.9-70.92
				c-0.43-0.35-0.87-0.69-1.3-1.03l-22.68,70.22c-6.66-10.66-13.31-21.48-19.96-32.46l22.82-100.84c-0.42-0.45-0.85-0.9-1.3-1.33
				l-22.68,100.25c-22.49-37.26-44.89-76.39-67.38-117.71l24.26-58.12c-0.52-0.12-1.03-0.23-1.55-0.33l-23.66,56.69
				c-4.78-8.8-9.57-17.69-14.36-26.69l7.95-19.19c1.31,0.09,2.61-0.57,3.27-1.79c0.89-1.65,0.25-3.7-1.42-4.58
				c-1.68-0.88-3.76-0.25-4.65,1.4c-0.87,1.61-0.28,3.61,1.31,4.52L462,291.45c-3.66-6.89-7.32-13.83-10.99-20.84l12.13-51.77
				C462.74,218.44,462.3,218.05,461.81,217.67z M469.47,269.79c0.49-0.9,1.63-1.24,2.54-0.77s1.26,1.6,0.78,2.5
				c-0.49,0.9-1.63,1.24-2.54,0.76C469.33,271.82,468.98,270.7,469.47,269.79z"/>
		</g>
		<g>
			<path style="fill:#2B4C2A;" d="M453.51,312.9c0.89-1.65,0.25-3.7-1.42-4.58c-1.68-0.88-3.76-0.25-4.65,1.4
				c-0.89,1.65-0.25,3.7,1.42,4.58S452.62,314.55,453.51,312.9z M448.81,310.44c0.49-0.9,1.63-1.24,2.54-0.76
				c0.92,0.48,1.26,1.6,0.78,2.5c-0.49,0.9-1.63,1.25-2.54,0.77C448.67,312.47,448.32,311.34,448.81,310.44z"/>
		</g>
	</g>
</g>
</svg>
