<?xml version="1.0" encoding="utf-8"?>
<!-- Generator: Adobe Illustrator 25.2.3, SVG Export Plug-In . SVG Version: 6.00 Build 0)  -->
<svg version="1.0" id="Layer_1" xmlns="http://www.w3.org/2000/svg" xmlns:xlink="http://www.w3.org/1999/xlink" x="0px" y="0px"
	 viewBox="0 0 1400 262.94" style="enable-background:new 0 0 1400 262.94;" xml:space="preserve">
<g>
	<path style="fill:#E9F5DF;" d="M160.31,62.53c-2.84-6.42-5.54-12.4-9.63-18.14c-2.16,13.02,2.07,26.91,11.05,36.69
		c-5.05-2.99-10.17-5.86-15.35-8.63c0.06-6.79-3.91-13.55-7.83-19.15c-4.05-5.78-9.25-10.06-16.04-12.22
		c2.55,11.28,11.46,22.19,20.88,29.77c-6.87-3.59-13.86-6.96-20.94-10.13c-12.49-17.37-40.03-14.65-40.03-14.65
		c15.06,17.45,34.52,16.42,39.51,15.82c7.67,3.44,15.23,7.13,22.66,11.05c-11.3-1.85-21.76-2.5-33.11-0.5
		c10.25,5.52,23.21,5.83,33.73,0.84c5.87,3.12,11.66,6.39,17.37,9.8c-13.38-3.26-27.03-1.05-38.31,6.78
		c6.28,2.99,13.52,3.98,20.39,2.78c6.84-1.19,13.27-4.55,18.11-9.45c5.52,3.3,10.95,6.74,16.3,10.3
		c-19.72-6.06-36.83,12.4-36.83,12.4c22.45,7.38,36.45-8.02,38.91-11.03c4.94,3.34,9.8,6.79,14.58,10.34
		c-19.46-2.78-35.69,12.18-35.69,12.18c18.54,6.63,33.88-8.57,36.61-11.5c6.67,4.99,13.17,10.19,19.51,15.57
		c-22.67-4.84-41.19,7.96-41.19,7.96c26.49,8.01,39.69-4.54,42.11-7.18c6.37,5.45,12.55,11.1,18.56,16.94
		c-24.48-5.97-46.56,8.41-46.56,8.41c22.2,5.42,43.47-5.66,47.23-7.76c4.15,4.05,8.21,8.19,12.18,12.41
		c-20.07-7.96-42.61,6.79-42.61,6.79c24.11,7.09,40.52-3.57,43.56-5.78c5.2,5.57,10.23,11.29,15.09,17.15
		c-25.91-9.05-47.16,11.09-47.16,11.09c27.08,5.49,44.73-7.67,47.86-10.24c6.54,7.91,12.78,16.07,18.67,24.46
		c-23.71-13.9-52.37-0.34-52.37-0.34c31.44,15.09,49.98,3.82,53.22,1.54c12.12,17.41,22.8,35.79,31.83,54.95
		c0.15,0.32,0.54,0.46,0.86,0.31c0.19-0.09,0.32-0.25,0.36-0.44c0.03-0.13,0.02-0.28-0.04-0.41c-9.11-19.32-19.89-37.85-32.12-55.4
		c17.65-27.97,2.03-55.57,2.03-55.57c-12.25,26.31-7.11,45.31-4.05,52.73c-5.56-7.82-11.4-15.43-17.52-22.82
		c18.54-29.29,0.8-61.37,0.8-61.37c-10.28,28.6-3.74,53.77-1.7,60.29c-4.8-5.76-9.77-11.4-14.9-16.89
		c15-25.76,3.89-50.31,3.89-50.31c-10.52,26.36-6.35,44.33-4.74,49.41c-4.01-4.26-8.1-8.44-12.29-12.52
		c12.79-30.14-8.39-61.29-8.39-61.29c-7.84,32.36,1.79,52.25,6.17,59.16c-5.59-5.37-11.33-10.58-17.23-15.62
		c9.21-27.05-10.45-53.08-10.45-53.08c-6.18,27.56,3.51,44.82,8.07,51.08c-5.86-4.92-11.84-9.7-17.98-14.28
		c8.55-17.98-7.1-42.95-7.1-42.95c-5.54,22.76,2.1,36.92,5.42,41.71c-4.62-3.42-9.31-6.74-14.08-9.96
		c0.55-8.55-0.06-13.52-1.77-20.43c-1.76-7.12-6.37-13.9-11.19-19.48c-1.39,13.69,3.32,28,11.69,39.08
		c-5.51-3.69-11.12-7.23-16.81-10.64C164.38,75.45,163.05,68.73,160.31,62.53z"/>
</g>
<g>
	<g>
		<path style="fill:#E9F5DF;" d="M485.07,222.22c-10.68-9.03-16.51-22.55-19.42-36.16c-2-9.38-2.77-18.96-3.59-28.51
			c-0.69-7.94-0.17-18.64-6.08-24.84c-4.65-4.88-13.03-5.57-17.79-0.33c-4.67,5.13-3.09,11.21-1.5,17.17
			c0.97,3.63,2.04,8.51,0.6,12.16c-2.08,5.28-8.7,4.58-12.01,0.71c-14-16.41-16.15-42.7-14.19-63.31c0.43-4.54,1.13-9.09,0.9-13.64
			c-0.48-9.42-7.03-20.01-17.9-18.91c-6.41,0.65-12.08,5.94-13.1,12.22c-1.27,7.83,3.99,15.25,4.29,23.16
			c0.04,1.11-0.02,2.25-0.5,3.26c-1.26,2.64-5.06,3.28-7.68,1.97c-5.86-2.93-8.32-12.21-9.63-18.01c-1.52-6.73-1.65-13.77-0.3-20.56
			c1.08-5.45,2.59-11.15,0.95-16.62c-2.12-7.07-10.87-7.63-14.62-1.54c-2.16,3.51-2.06,7.75-4.03,11.32c-3.48,6.3-8.34-3.8-9.3-6.47
			c-1.77-4.94-2.19-10.6-4.49-15.31c-2.99-6.11-11.79-13.26-18.53-9.1c-8.49,5.23-6.8,15.27,1.59,22.41
			c5.94,5.06,13.3,8.69,18.22,14.86c4.12,5.17,7.47,18.74-3.83,15.58c-3.94-1.1-8.07-1.56-12.18-1.35
			c-4.02,0.21-8.38,1.27-10.83,4.44c-3.55,4.61-1.24,11.66,3.3,15.28c4.53,3.62,10.54,4.74,16.26,5.92
			c20,4.16,40.79,11.46,52.86,27.68c1.82,2.44,3.47,5.44,2.68,8.38c-0.83,3.1-4.2,5-7.43,5.26c-10.26,0.82-19.11-5.3-29.12-5.9
			c-9.71-0.59-19.61,5.54-16.36,16.25c4.22,13.94,22.22,15.68,34.6,16.48c16.82,1.09,34.03,3.01,50.46,6.79
			c4.98,1.15,14.07,6.6,6.58,11.55c-5.61,3.71-12.44,4.96-18.18,8.42c-13.65,8.23-6.76,24.31,7.74,25.34
			c14.21,1.01,26.5-8.88,39.82-12.06c11.08-2.65,22.67,1.53,33.01,6.14"/>
	</g>
	<g>
		<path style="fill:#D5EBC1;" d="M411.37,213.92c-0.13-0.4,0.1-0.82,0.5-0.95c2.66-0.84,5.24-1.76,7.73-2.64
			c7.54-2.68,14.67-5.21,23.15-5.46c9.34-0.27,17.1,0.9,23.84,3.63c-3.45-2.74-6.86-5.52-10.24-8.34
			c-30.42-23.34-64.2-37.19-98.44-40.22c-0.42-0.04-0.73-0.4-0.69-0.82c0.04-0.41,0.41-0.72,0.83-0.68
			c29.61,2.62,58.86,13.25,85.92,31.05c-21.52-19.15-41.45-40.05-59.53-62.41c-0.02-0.02-0.04-0.03-0.06-0.04
			c-14.65-17.37-38.95-31.25-60.47-34.53c-0.42-0.06-0.7-0.45-0.63-0.86c0.07-0.41,0.46-0.69,0.88-0.63
			c17.66,2.69,37.16,12.41,51.84,25.35c-4.95-6.46-9.76-13.04-14.4-19.73c-0.04-0.05-0.09-0.1-0.12-0.17c0,0,0,0,0-0.01
			c-12.22-17.59-23.35-35.92-33.27-54.87c-0.19-0.37-0.04-0.82,0.33-1.02c0.37-0.19,0.84-0.05,1.03,0.32
			c8.98,17.14,18.95,33.76,29.81,49.8c-3.06-10.17-3.57-22.38-1.21-33.25c0.09-0.41,0.49-0.67,0.91-0.59
			c0.41,0.08,0.67,0.48,0.59,0.89c-2.75,12.68-1.53,27.22,3.17,37.99c15.4,22.16,32.53,43.15,51.19,62.72
			c-16.37-26.3-21.06-49.48-15.21-74.28c0.1-0.41,0.51-0.66,0.92-0.57c0.41,0.09,0.67,0.49,0.57,0.9
			c-6.23,26.41-0.28,51,19.29,79.71c11.98,12.19,24.58,23.8,37.71,34.77c1.32,1.01,2.64,2.04,3.94,3.09
			c-13.04-16.94-16.7-35.31-11.51-57.16c0.1-0.41,0.51-0.66,0.92-0.57c0.41,0.09,0.67,0.49,0.57,0.9
			c-5.75,24.24-0.39,44.11,16.88,62.51c7.23,5.72,14.61,11.27,22.15,16.6c0.32,0.23,0.41,0.66,0.21,0.99
			c-0.01,0.02-0.03,0.04-0.04,0.06c-0.25,0.34-0.72,0.42-1.07,0.18c-5.47-3.87-10.85-7.86-16.16-11.94
			c-0.01-0.01-0.03-0.01-0.04-0.02c-8.1-5.32-17.75-7.63-30.37-7.26c-8.24,0.24-15.26,2.73-22.68,5.37
			c-2.5,0.89-5.09,1.81-7.78,2.66C411.92,214.54,411.49,214.32,411.37,213.92z"/>
	</g>
</g>
<g>
	<g>
		<path style="fill:#E9F5DF;" d="M863.93,179.43c10.27-9.5,24.39-13.64,38.25-14.87c9.56-0.84,19.16-0.44,28.73-0.09
			c7.96,0.29,18.52,2.1,25.4-3.01c5.41-4.02,7.12-12.25,2.5-17.62c-4.53-5.26-10.75-4.43-16.86-3.58c-3.72,0.52-8.7,0.99-12.15-0.89
			c-4.99-2.71-3.49-9.2,0.76-12c18-11.89,44.34-10.82,64.57-6.37c4.46,0.98,8.89,2.23,13.43,2.55c9.41,0.67,20.72-4.54,20.95-15.46
			c0.13-6.45-4.42-12.72-10.54-14.49c-7.62-2.21-15.63,2.1-23.52,1.44c-1.1-0.09-2.23-0.3-3.17-0.9c-2.46-1.57-2.64-5.42-1.02-7.86
			c3.62-5.46,13.13-6.77,19.05-7.37c6.86-0.68,13.87,0.04,20.45,2.2c5.27,1.74,10.76,3.93,16.38,2.97c7.28-1.24,8.9-9.86,3.31-14.32
			c-3.22-2.58-7.44-2.99-10.75-5.38c-5.83-4.22,4.79-7.82,7.56-8.44c5.11-1.15,10.78-0.88,15.74-2.6
			c6.43-2.23,14.59-10.08,11.29-17.28c-4.16-9.07-14.33-8.61-22.44-1.15c-5.74,5.28-10.24,12.14-16.97,16.27
			c-5.64,3.46-19.51,5.13-15-5.7c1.58-3.78,2.53-7.82,2.83-11.92c0.29-4.02-0.24-8.47-3.09-11.29c-4.14-4.09-11.42-2.65-15.56,1.41
			c-4.14,4.06-5.98,9.89-7.86,15.41c-6.57,19.34-16.35,39.08-33.92,49.09c-2.64,1.51-5.82,2.78-8.64,1.64
			c-2.97-1.2-4.45-4.77-4.31-8.01c0.43-10.29,7.59-18.32,9.41-28.19c1.77-9.56-3.11-20.14-14.14-18.22
			c-14.35,2.49-18.27,20.15-20.57,32.33c-3.13,16.56-7.13,33.41-12.89,49.25c-1.75,4.81-8.26,13.16-12.27,5.12
			c-3-6.02-3.4-12.95-6.14-19.07c-6.5-14.55-23.31-9.67-26.09,4.59c-2.73,13.98,5.58,27.38,7.12,41
			c1.28,11.32-4.28,22.31-10.12,32.01"/>
	</g>
	<g>
		<path style="fill:#D5EBC1;" d="M881.15,107.28c0.41-0.08,0.8,0.2,0.88,0.61c0.51,2.75,1.11,5.41,1.68,7.99
			c1.74,7.81,3.38,15.19,2.6,23.65c-0.87,9.3-2.98,16.86-6.51,23.22c3.14-3.09,6.32-6.14,9.53-9.15
			c26.88-27.35,44.74-59.19,51.92-92.8c0.09-0.41,0.49-0.67,0.9-0.58c0.41,0.09,0.66,0.5,0.58,0.91
			c-6.21,29.07-20.33,56.81-41.29,81.5c21.63-19.03,44.81-36.26,69.2-51.48c0.02-0.02,0.03-0.04,0.05-0.05
			c19.03-12.43,35.77-34.86,41.64-55.81c0.11-0.41,0.53-0.64,0.93-0.52c0.4,0.12,0.63,0.54,0.52,0.95
			c-4.82,17.2-16.85,35.37-31.48,48.37c7.02-4.13,14.13-8.1,21.33-11.89c0.06-0.04,0.11-0.08,0.18-0.1c0,0,0,0,0.01,0
			c18.95-9.98,38.5-18.8,58.52-26.34c0.39-0.15,0.82,0.06,0.97,0.45c0.15,0.4-0.05,0.84-0.44,0.98
			c-18.1,6.82-35.82,14.69-53.06,23.52c10.47-1.8,22.65-0.82,33.15,2.85c0.4,0.14,0.6,0.57,0.47,0.97c-0.13,0.4-0.56,0.61-0.95,0.47
			c-12.25-4.28-26.83-4.84-38.09-1.48c-23.87,12.58-46.8,27.02-68.49,43.16c28.1-13.04,51.68-14.87,75.58-6.04
			c0.39,0.14,0.59,0.58,0.45,0.98c-0.14,0.4-0.57,0.6-0.96,0.46c-25.46-9.41-50.58-6.5-81.46,9.43
			c-13.56,10.41-26.61,21.49-39.11,33.19c-1.17,1.19-2.35,2.37-3.55,3.54c18.4-10.88,37.08-12.27,58.13-4.46
			c0.39,0.15,0.59,0.58,0.45,0.98c-0.14,0.4-0.57,0.6-0.96,0.46c-23.36-8.66-43.73-5.76-64.1,9.13
			c-6.56,6.48-12.97,13.13-19.18,19.96c-0.26,0.29-0.7,0.32-1.01,0.09c-0.02-0.01-0.04-0.03-0.06-0.05
			c-0.31-0.29-0.33-0.77-0.04-1.08c4.51-4.96,9.12-9.81,13.82-14.59c0.01-0.01,0.01-0.03,0.02-0.04
			c6.27-7.39,9.74-16.69,10.91-29.26c0.76-8.21-0.85-15.47-2.57-23.16c-0.58-2.59-1.17-5.27-1.69-8.04
			C880.48,107.76,880.75,107.36,881.15,107.28z"/>
	</g>
</g>
<g>
	<g>
		<path style="fill:#E9F5DF;" d="M724.75,198.66c-13.15-4.77-23.31-15.42-30.75-27.18c-5.13-8.1-9.17-16.83-13.26-25.49
			c-3.4-7.21-6.63-17.43-14.32-21.19c-6.06-2.96-14.15-0.71-16.8,5.86c-2.6,6.44,0.99,11.58,4.54,16.62
			c2.16,3.07,4.86,7.28,4.78,11.2c-0.12,5.68-6.57,7.32-11.02,4.83c-18.82-10.54-29.95-34.45-35.26-54.46
			c-1.17-4.41-2.09-8.92-3.89-13.11c-3.72-8.67-13.53-16.33-23.34-11.53c-5.79,2.84-9.27,9.76-8.05,16.01
			c1.53,7.78,9.03,12.92,12.06,20.24c0.42,1.02,0.76,2.12,0.66,3.23c-0.27,2.91-3.61,4.83-6.52,4.51
			c-6.51-0.72-12.04-8.56-15.28-13.55c-3.75-5.78-6.33-12.35-7.42-19.18c-0.87-5.48-1.44-11.36-4.88-15.92
			c-4.44-5.9-12.84-3.39-14.25,3.62c-0.81,4.04,0.76,7.98,0.14,12.02c-1.08,7.12-9.14-0.67-10.97-2.85
			c-3.37-4.02-5.72-9.18-9.52-12.8c-4.93-4.69-15.65-8.35-20.54-2.11c-6.15,7.85-1.08,16.68,9.27,20.47
			c7.33,2.68,15.48,3.54,22.24,7.62c5.66,3.42,13.51,14.99,1.81,15.94c-4.08,0.33-8.12,1.34-11.89,2.95
			c-3.7,1.59-7.42,4.09-8.61,7.92c-1.73,5.56,2.89,11.37,8.39,13.19c5.5,1.82,11.53,0.79,17.3-0.08c20.2-3.03,42.23-3.39,59.18,7.63
			c2.55,1.66,5.14,3.89,5.42,6.93c0.3,3.19-2.2,6.14-5.14,7.51c-9.34,4.33-19.76,1.66-29.36,4.56c-9.31,2.81-16.47,11.99-9.71,20.92
			c8.8,11.61,26.28,7,38.17,3.46c16.15-4.81,32.96-8.98,49.68-11.13c5.07-0.65,15.49,1.31,10.18,8.55
			c-3.98,5.43-9.95,8.96-14.13,14.2c-9.95,12.45,2.09,25.15,16.05,21.08c13.68-3.99,21.78-17.52,33.17-25.13
			c9.48-6.33,21.79-6.43,33.09-5.69"/>
	</g>
	<g>
		<path style="fill:#D5EBC1;" d="M652.74,216.44c-0.26-0.33-0.19-0.8,0.14-1.06c2.21-1.72,4.3-3.47,6.33-5.16
			c6.14-5.13,11.95-9.97,19.82-13.15c8.66-3.49,16.35-5.09,23.62-4.86c-4.19-1.37-8.35-2.8-12.5-4.27
			c-36.63-11.35-73.11-12.62-106.28-3.59c-0.41,0.11-0.82-0.13-0.93-0.53c-0.11-0.4,0.14-0.82,0.55-0.93
			c28.68-7.81,59.8-7.98,91.36-0.67c-26.83-10.5-52.77-23.19-77.48-37.89c-0.02-0.01-0.05-0.01-0.07-0.02
			c-19.77-11.21-47.38-15.8-68.69-11.42c-0.41,0.08-0.81-0.18-0.89-0.59c-0.08-0.41,0.19-0.81,0.6-0.89
			c17.5-3.6,39.16-1.25,57.42,5.79c-6.89-4.35-13.67-8.85-20.35-13.51c-0.06-0.03-0.12-0.06-0.17-0.11c0,0,0,0-0.01-0.01
			c-17.56-12.27-34.36-25.59-50.24-39.92c-0.31-0.28-0.33-0.76-0.04-1.07c0.28-0.31,0.77-0.34,1.07-0.06
			c14.36,12.96,29.48,25.1,45.23,36.37c-6.4-8.48-11.11-19.75-12.67-30.77c-0.06-0.42,0.23-0.8,0.65-0.86
			c0.42-0.06,0.8,0.22,0.86,0.63c1.82,12.85,8,26.06,16.15,34.53c22.13,15.45,45.47,29.2,69.76,41.08
			c-24.47-19-36.91-39.11-40.02-64.4c-0.05-0.41,0.25-0.8,0.66-0.85c0.42-0.06,0.8,0.23,0.85,0.65
			c3.31,26.94,17.42,47.93,45.74,68.07c15.47,7.28,31.3,13.8,47.43,19.54c1.59,0.49,3.18,1,4.77,1.53
			c-18.1-11.36-27.9-27.32-30.62-49.62c-0.05-0.42,0.25-0.8,0.66-0.85c0.42-0.06,0.8,0.23,0.85,0.65
			c3.01,24.73,14.93,41.5,37.51,52.78c8.77,2.86,17.62,5.5,26.53,7.89c0.38,0.1,0.61,0.47,0.54,0.85c0,0.02-0.01,0.05-0.02,0.07
			c-0.11,0.4-0.54,0.64-0.94,0.53c-6.47-1.73-12.9-3.61-19.3-5.59c-0.02,0-0.03,0-0.05,0c-9.44-2.18-19.29-1-31,3.72
			c-7.65,3.09-13.36,7.85-19.41,12.9c-2.04,1.7-4.14,3.46-6.37,5.19C653.48,216.82,653,216.77,652.74,216.44z"/>
	</g>
</g>
<g>
	<path style="fill:#E9F5DF;" d="M1258.21,80.46c7.02-0.28,13.57-0.6,20.41-2.29c-11.32-6.8-25.78-7.96-38.18-3.21
		c4.64-3.6,9.19-7.3,13.66-11.1c6.29,2.55,14.04,1.34,20.68-0.25c6.87-1.64,12.75-4.91,17.26-10.43
		c-11.43-1.78-24.85,2.5-35.37,8.48c5.86-5.07,11.56-10.33,17.12-15.75c20.75-5.23,28.34-31.85,28.34-31.85
		c-21.77,7.6-27.96,26.07-29.24,30.93c-6.02,5.87-12.22,11.55-18.6,17.01c5.87-9.83,10.32-19.32,12.64-30.6
		c-8.9,7.5-13.95,19.44-13.18,31.06c-5.06,4.32-10.23,8.5-15.49,12.55c7.95-11.25,10.91-24.75,7.77-38.12
		c-5.09,4.74-8.67,11.11-10.08,17.94c-1.4,6.8-0.64,14.01,2.13,20.32c-5.1,3.92-10.29,7.71-15.57,11.37
		c12.89-16.11,2.01-38.81,2.01-38.81c-15.12,18.17-5.94,36.84-4.05,40.24c-4.92,3.37-9.91,6.61-14.98,9.75
		c9.74-17.08,1.78-37.67,1.78-37.67c-12.98,14.8-4.48,34.66-2.76,38.27c-7.09,4.37-14.31,8.5-21.65,12.42
		c12.83-19.31,7.73-41.23,7.73-41.23c-17.18,21.69-10.37,38.58-8.79,41.81c-7.41,3.92-14.94,7.59-22.57,11.04
		c14.55-20.57,9.29-46.39,9.29-46.39c-13.2,18.65-10.71,42.51-10.14,46.78c-5.29,2.37-10.63,4.63-16.02,6.77
		c14.78-15.74,9.35-42.12,9.35-42.12c-15.46,19.82-11.57,38.99-10.64,42.64c-7.09,2.79-14.26,5.36-21.49,7.74
		c17.94-20.77,7.01-47.94,7.01-47.94c-15.06,23.17-9.3,44.42-8.06,48.28c-9.76,3.17-19.64,5.98-29.61,8.37
		c21.65-16.94,19.57-48.58,19.57-48.58c-25.59,23.7-21.92,45.08-20.99,48.93c-20.64,4.88-41.66,8.05-62.8,9.41
		c-0.35,0.02-0.62,0.33-0.6,0.69c0.01,0.21,0.12,0.39,0.28,0.5c0.11,0.08,0.25,0.12,0.4,0.11c21.32-1.37,42.51-4.58,63.33-9.52
		c19.53,26.69,50.93,22.31,50.93,22.31c-19.96-21.06-39.53-23.26-47.55-23.15c9.31-2.3,18.54-4.94,27.67-7.91
		c20.43,28.01,56.78,23.3,56.78,23.3c-22.82-20.07-48.63-23.24-55.44-23.73c7.13-2.35,14.19-4.9,21.18-7.65
		c18.44,23.42,45.36,22.11,45.36,22.11c-20.65-19.47-38.89-22.2-44.21-22.57c5.43-2.16,10.82-4.43,16.16-6.83
		c23.33,22.97,60.09,14.72,60.09,14.72c-27.21-19.19-49.25-17.53-57.29-16c7.05-3.23,14.01-6.65,20.86-10.28
		c21.77,18.51,53.21,9.78,53.21,9.78c-23.36-15.88-42.98-13.21-50.48-11.26c6.73-3.64,13.37-7.45,19.89-11.47
		c13.58,14.56,42.55,9.18,42.55,9.18c-19.13-13.52-35.11-11.61-40.78-10.29c4.88-3.04,9.69-6.18,14.44-9.43
		c7.75,3.65,12.59,4.91,19.65,5.86c7.27,0.98,15.27-0.82,22.23-3.25c-12.22-6.33-27.26-7.2-40.64-3.48
		c5.45-3.77,10.81-7.68,16.07-11.72C1244.69,79.51,1251.43,80.74,1258.21,80.46z"/>
</g>
<g>
	<g>
		<path style="fill:#E9F5DF;" d="M899.41,208.46C833.53,141.99,735.18,89.37,671.36,92.5c0,0,24.05,28.27,77.37,72.9
			c53.32,44.64,99.85,75.77,99.85,75.77L899.41,208.46z"/>
	</g>
	<g>
		<path style="fill:#D5EBC1;" d="M672.64,93.96c7.47,3.15,15.13,6.62,22.92,10.41l-11.17,2.12c0.46,0.47,0.93,0.95,1.41,1.45
			l12.29-2.33c9.12,4.49,18.43,9.4,27.87,14.69l-22,5.41c0.48,0.45,0.97,0.92,1.46,1.37l22.7-5.58
			c15.62,8.83,31.58,18.68,47.6,29.38l-39.1,4.24c0.58,0.5,1.16,1,1.75,1.5l39.52-4.29c1.96,1.32,3.93,2.65,5.89,3.99l-39.29,5.5
			c0.57,0.48,1.15,0.97,1.73,1.46l39.61-5.55c10.67,7.35,21.35,15.06,31.95,23.08l-42.93,5.87c0.61,0.49,1.22,0.97,1.83,1.45
			l42.99-5.87c13.55,10.31,26.98,21.11,40.1,32.32c0.36,0.3,0.9,0.27,1.2-0.08c0.31-0.35,0.27-0.88-0.09-1.19
			c-7.24-6.18-14.58-12.24-21.97-18.16l2.03-36.18c-0.55-0.39-1.1-0.78-1.65-1.17l-2.02,36.03c-2.36-1.88-4.73-3.74-7.1-5.6
			l2.13-35.3c-0.55-0.37-1.09-0.75-1.64-1.12l-2.12,35.15c-11.48-8.93-23.08-17.52-34.7-25.7l1.47-31.16
			c-0.56-0.31-1.11-0.61-1.67-0.92l-1.46,30.91c-14.38-10.07-28.78-19.5-43-28.17l-0.35-23.77c-0.57-0.22-1.15-0.45-1.72-0.66
			l0.34,23.38c-6.26-3.79-12.48-7.44-18.64-10.92c-0.09-0.07-0.19-0.13-0.3-0.17c-4.35-2.45-8.66-4.82-12.95-7.11l-2.34-15.71
			c-0.6-0.14-1.19-0.27-1.79-0.41l2.25,15.12c-1.29-0.68-2.58-1.36-3.86-2.03l-2.8-14.04c-0.61-0.12-1.21-0.23-1.81-0.35l2.67,13.39
			c-3.06-1.58-6.11-3.12-9.13-4.61c-0.09-0.07-0.2-0.12-0.31-0.15c-8.55-4.2-16.94-8.03-25.11-11.48c-0.66,0.02-1.33,0.04-1.99,0.07
			C671.36,92.5,671.79,93,672.64,93.96z"/>
	</g>
</g>
<linearGradient id="SVGID_1_" gradientUnits="userSpaceOnUse" x1="357.559" y1="-221.1982" x2="867.4853" y2="507.268">
	<stop  offset="4.475343e-07" style="stop-color:#2E4856"/>
	<stop  offset="1" style="stop-color:#539182"/>
</linearGradient>
<path style="fill:url(#SVGID_1_);" d="M200.13,166.77c79.11-17.03,291.59,43.51,552.02-1.88c263.76-45.97,465.83-48.09,538,1.88
	c81.74,56.6,103.72,96.17,103.72,96.17L0.03,264.72C0.03,264.72,41.2,200.97,200.13,166.77z"/>
<linearGradient id="SVGID_2_" gradientUnits="userSpaceOnUse" x1="1013.684" y1="582.8669" x2="329.7631" y2="-111.3496">
	<stop  offset="4.475343e-07" style="stop-color:#2E4856"/>
	<stop  offset="1" style="stop-color:#539182"/>
</linearGradient>
<path style="fill:url(#SVGID_2_);" d="M308.38,183.43c49.39-1.77,301.85-7.97,498.03-18.54c262.05-14.12,372.71-22.11,439.18,11.55
	c111.21,56.32,134.02,86.49,134.02,86.49l-1360.75,1.8C18.86,264.72,80.17,191.59,308.38,183.43z"/>
<linearGradient id="SVGID_3_" gradientUnits="userSpaceOnUse" x1="698.2867" y1="264.5719" x2="698.2867" y2="162.8829">
	<stop  offset="4.475343e-07" style="stop-color:#2E4856"/>
	<stop  offset="1" style="stop-color:#539182"/>
</linearGradient>
<path style="fill:url(#SVGID_3_);" d="M377.9,193.65c60.82-5.13,179.11-48.61,328.14-26.49c227.94,33.84,445.98-31.8,548.94,17.38
	c78.67,37.58,100.4,78.4,100.4,78.4L41.2,264.72C41.2,264.72,104.29,216.73,377.9,193.65z"/>
<g>
	<g>
		<path style="fill:#367447;" d="M438.9,267.21c-5.97-10.01-6.72-22.48-13.11-32.24c-7.05-10.76-19.66-16.41-31.59-21.5
			c-11.68-4.99-23.35-9.97-35.03-14.96c-12-5.12-24.39-10.52-33.17-20.06c-19.83-21.56-14.74-55.53-35.64-76.61
			c-4.41-4.45-10.33-7.78-16.64-7.78c-23.64,0.01-17.83,34.07-12.94,47.84c11.98,33.7,42.76,70.61,77.29,83.55
			c18.78,7.04,40.63,7.77,56.17,20.31c6.98,5.63,12.03,13.19,18.2,19.67c11.13,11.68,26.08,19.79,42.07,22.8
			c8.43,1.59,17.9,1.55,24.67-3.64c-4.36,3.35-17.58-0.55-22.18-2.32C449.51,279.37,442.97,274.03,438.9,267.21z"/>
	</g>
	<g>
		<path style="fill:#165A2C;" d="M480.91,283.43c-0.05,0.17-0.16,0.32-0.34,0.4c-17.8,8.56-39.09-1.56-51.92-12.83
			c-5.78-5.08-8.68-10.81-11.48-16.35c-4.01-7.92-8.15-16.1-20.95-22.56c-7.87-3.97-17.64-7.86-27.09-11.62
			c-10.28-4.09-20.9-8.32-29.38-12.76c-43.77-22.88-57.27-54.18-64.86-97.27c-0.06-0.35,0.17-0.67,0.52-0.73
			c0.35-0.06,0.68,0.17,0.74,0.51c7.53,42.71,20.89,73.73,64.2,96.37c8.42,4.4,19.02,8.62,29.26,12.7
			c9.48,3.77,19.28,7.68,27.2,11.67c13.18,6.65,17.42,15.02,21.52,23.12c2.88,5.68,5.59,11.05,11.19,15.97
			c12.53,11.01,33.27,20.93,50.5,12.64c0.32-0.15,0.7-0.02,0.86,0.29C480.94,283.13,480.95,283.28,480.91,283.43z"/>
	</g>
</g>
<g>
	<g>
		<path style="fill:#366652;" d="M791.93,123.36c-5.89,13.36-25.21,7.01-34.02,18.08c-8.26,10.37-7.89,22.45-16.08,32.9
			c-15.45,19.73-44.84,13.53-64.05,28.38c-14.7,11.36-20.96,33.19-35.51,44.8c-24.47,19.54-62.42,3.26-85.8,24.46
			c-11.18,10.14-16.21,26.64-25.55,38.97c-5.59,7.37-12.61,13.12-19.57,18.79c21.85-2.39,43.94-2.18,65.79,0.63
			c12.3,1.58,25.54,3.79,36.38-2.88c6.17-3.8,10.82-10.09,16.51-14.74c14.86-12.13,34.65-11.77,52.97-13.08
			c18.32-1.31,38.85-6.5,48.14-24.44c3.51-6.76,4.98-14.68,8.23-21.6c7.31-15.56,22.25-23.92,35.59-32.9
			c13.34-8.98,27.05-21.61,28.53-39.23c0.94-11.21-2.99-24.18,3.3-32.82c3.8-5.21,10.37-7.06,13.99-12.44
			c8.46-12.58,0.32-34.96,3.55-47.05C818.15,102.46,804.55,94.75,791.93,123.36z"/>
	</g>
	<g>
		<path style="fill:#175A4D;" d="M526.83,323.48c0.23,0.17,0.52,0.25,0.81,0.16c105.46-34.36,210.37-70.19,288.56-212.22
			c0.29-0.53,0.14-1.23-0.31-1.57c-0.01-0.01-0.02-0.02-0.03-0.02c-0.48-0.33-1.11-0.16-1.4,0.38
			C738.88,252.3,639.62,289.92,527.14,321.39c-0.55,0.15-0.88,0.78-0.74,1.4C526.47,323.09,526.63,323.33,526.83,323.48z"/>
	</g>
</g>
<g>
	<g>
		<path style="fill:#346647;" d="M984.04,306.37c97.42-33.72,196.3-106.59,223.24-171.9c0,0-39.56,10.38-109.26,42.09
			c-69.7,31.71-161.28,100.49-161.28,100.49L984.04,306.37z"/>
	</g>
	<g>
		<path style="fill:#1E5A43;" d="M1205.23,135.04c-6.66,5.95-13.74,11.92-21.2,17.88l3.15-12.19c-0.69,0.23-1.38,0.47-2.11,0.71
			l-3.46,13.41c-8.78,6.95-18.08,13.88-27.8,20.75l4.96-24.61c-0.67,0.26-1.37,0.53-2.06,0.8l-5.12,25.39
			c-16.18,11.35-33.53,22.54-51.76,33.38l14.19-41.14c-0.77,0.34-1.54,0.67-2.32,1.02l-14.34,41.58c-2.24,1.32-4.5,2.64-6.76,3.96
			l13.02-41.93c-0.75,0.34-1.51,0.68-2.27,1.02l-13.12,42.28c-12.37,7.11-25.1,14.06-38.1,20.78l14.37-45.75
			c-0.77,0.38-1.54,0.75-2.31,1.13l-14.39,45.81c-16.68,8.56-33.79,16.76-51.17,24.46c-0.47,0.21-0.69,0.77-0.48,1.25
			c0.2,0.48,0.75,0.7,1.22,0.49c9.59-4.25,19.09-8.65,28.49-13.18l35.18,19.52c0.65-0.36,1.29-0.72,1.94-1.08l-35.03-19.44
			c2.99-1.45,5.97-2.91,8.93-4.39l34.24,19.2c0.63-0.37,1.26-0.73,1.89-1.1l-34.1-19.11c14.33-7.16,28.37-14.6,42.01-22.27
			l30.42,16.53c0.57-0.41,1.13-0.82,1.7-1.22l-30.19-16.4c16.83-9.51,33.03-19.34,48.39-29.36l23.9,11.15
			c0.49-0.47,0.99-0.93,1.47-1.4l-23.51-10.96c6.73-4.42,13.31-8.88,19.69-13.36c0.12-0.05,0.22-0.12,0.31-0.22
			c4.5-3.16,8.89-6.33,13.2-9.51l16.79,5.26c0.42-0.53,0.84-1.06,1.25-1.59l-16.16-5.06c1.29-0.96,2.57-1.92,3.84-2.88l15.34,3.99
			c0.41-0.55,0.8-1.09,1.2-1.64l-14.63-3.8c3.02-2.3,5.99-4.6,8.9-6.9c0.11-0.06,0.21-0.14,0.3-0.24c8.23-6.52,16-13.05,23.29-19.56
			c0.29-0.67,0.59-1.35,0.87-2.02C1207.29,134.46,1206.58,134.65,1205.23,135.04z"/>
	</g>
</g>
<g>
	<g>
		<path style="fill:#446649;" d="M710.1,313.58c-0.09-8.19-17.02-13.31-20.12-21.69c-2.9-7.86,1.39-12.94-1.43-20.8
			c-5.31-14.84-29.94-24.13-39.76-38.39c-7.51-10.91-5.08-22.91-12.4-33.87c-12.3-18.43-46.84-26.85-57.76-45.55
			c-5.22-8.95-3.61-18.14-6.68-27.28c-1.84-5.47-5.33-10.82-8.79-16.11c15.98,9.94,33.01,18.85,50.71,26.53
			c9.97,4.33,20.87,8.76,26.97,16.07c3.47,4.16,4.96,8.78,7.78,13.11c7.38,11.31,22.7,19.21,36.32,27.25
			c13.63,8.03,27.67,18.64,28.85,30.2c0.45,4.36-1.05,8.38-0.85,12.71c0.45,9.72,9.14,19.42,16.41,28.75
			c7.27,9.32,13.59,20.38,8.89,28.61c-2.99,5.24-10.32,9.25-8.36,15.56c1.18,3.8,5.62,7.28,6.61,11.09
			c2.32,8.89-11.35,15.27-12.89,21.82C723.3,333.31,710.3,331.11,710.1,313.58z"/>
	</g>
	<g>
		<path style="fill:#295A3A;" d="M572.99,118.9c0.23,0.02,0.49,0.1,0.67,0.26c69.56,57.85,138.21,116.12,151.11,209.48
			c0.05,0.35-0.3,0.59-0.76,0.55c-0.01,0-0.02,0-0.03,0c-0.48-0.05-0.91-0.38-0.95-0.74c-10.88-92.32-74.6-149.06-150.5-208.52
			c-0.37-0.29-0.41-0.69-0.1-0.91C572.58,118.93,572.78,118.89,572.99,118.9z"/>
	</g>
</g>
<g>
	<g>
		<path style="fill:#366652;" d="M729.9,310.76c-16.25-3.33-15.59-28.47-30.31-35.97c-13.8-7.03-26.68-3.16-40.53-10.08
			c-26.15-13.06-28.87-50.34-50.98-69.33c-16.92-14.53-42.4-15.9-59.54-30.18c-28.84-24.02-23.43-74.51-53.7-96.73
			c-14.48-10.63-33.84-12.02-50.08-19.8c-9.72-4.65-18.14-11.51-26.46-18.31c9.54,25.73,16.37,52.47,20.32,79.67
			c2.23,15.32,4.07,31.94,14.71,43.15c6.05,6.37,14.31,10.2,21.13,15.76c17.8,14.51,23.72,38.53,30.98,60.29
			c7.26,21.76,19.39,45.1,41.66,51.23c8.4,2.31,17.38,1.85,25.87,3.81c19.08,4.41,32.84,20.08,46.76,33.66
			c13.92,13.57,31.89,26.54,51.31,23.33c12.36-2.04,25.06-10.49,36.36-5.34c6.82,3.11,10.91,10.52,17.85,13.36
			c16.23,6.64,37.71-9.55,51.75-9.09C760.75,336.5,764.7,317.88,729.9,310.76z"/>
	</g>
	<g>
		<path style="fill:#175A4D;" d="M429.97,47.3c-0.11,0.33-0.11,0.71,0.08,1.02c70.63,117.67,142.67,234.26,320.44,288.38
			c0.66,0.2,1.36-0.18,1.59-0.82c0.01-0.02,0.01-0.03,0.02-0.05c0.21-0.68-0.18-1.39-0.86-1.58
			c-177-50.95-249.16-160.2-318.92-287.17c-0.34-0.62-1.12-0.84-1.74-0.49C430.27,46.75,430.07,47,429.97,47.3z"/>
	</g>
</g>
<g>
	<g>
		<path style="fill:#366652;" d="M1296.35,103.88c-7.37,14.86-31.51,7.81-42.52,20.12c-10.32,11.54-9.87,24.98-20.09,36.61
			c-19.31,21.95-56.05,15.05-80.05,31.58c-18.37,12.65-26.2,36.93-44.38,49.86c-30.59,21.75-78.02,3.62-107.24,27.21
			c-13.98,11.28-20.27,29.65-31.93,43.36c-6.98,8.21-15.76,14.6-24.46,20.91c27.31-2.66,54.91-2.42,82.22,0.7
			c15.38,1.76,31.92,4.22,45.47-3.21c7.71-4.23,13.52-11.23,20.64-16.4c18.58-13.5,43.31-13.1,66.2-14.55
			c22.89-1.46,48.55-7.23,60.17-27.19c4.38-7.53,6.22-16.33,10.29-24.04c9.14-17.32,27.8-26.62,44.48-36.61
			c16.68-9.99,33.81-24.05,35.66-43.65c1.18-12.47-3.74-26.9,4.12-36.52c4.74-5.8,12.96-7.86,17.48-13.84
			c10.57-14,0.4-38.9,4.43-52.35C1329.11,80.62,1312.12,72.05,1296.35,103.88z"/>
	</g>
	<g>
		<path style="fill:#175A4D;" d="M965.02,326.58c0.29,0.19,0.66,0.28,1.01,0.18c131.81-38.23,262.93-78.11,360.65-236.16
			c0.36-0.59,0.18-1.36-0.39-1.75c-0.01-0.01-0.03-0.02-0.04-0.03c-0.6-0.37-1.39-0.18-1.75,0.43
			c-94.46,158.12-218.52,199.98-359.1,235c-0.68,0.17-1.09,0.87-0.92,1.56C964.57,326.14,964.77,326.4,965.02,326.58z"/>
	</g>
</g>
<g>
	<g>
		<path style="fill:#446649;" d="M543.41,262.1c-65.88-66.47-164.23-119.09-228.05-115.96c0,0,24.05,28.27,77.37,72.9
			c53.32,44.64,99.85,75.77,99.85,75.77L543.41,262.1z"/>
	</g>
	<g>
		<path style="fill:#295A3A;" d="M316.64,147.61c7.47,3.15,15.13,6.62,22.92,10.41l-11.17,2.12c0.46,0.47,0.93,0.95,1.41,1.45
			l12.29-2.33c9.12,4.49,18.43,9.4,27.87,14.69l-22,5.41c0.48,0.45,0.97,0.92,1.46,1.37l22.7-5.58
			c15.62,8.83,31.58,18.68,47.6,29.38l-39.1,4.24c0.58,0.5,1.16,1,1.75,1.5l39.52-4.29c1.96,1.32,3.93,2.65,5.89,3.99l-39.29,5.5
			c0.57,0.48,1.15,0.97,1.73,1.46l39.61-5.55c10.67,7.35,21.35,15.06,31.95,23.08l-42.93,5.87c0.61,0.49,1.22,0.97,1.83,1.45
			l42.99-5.87c13.55,10.31,26.98,21.11,40.1,32.32c0.36,0.3,0.9,0.27,1.2-0.08c0.31-0.35,0.27-0.88-0.09-1.19
			c-7.24-6.18-14.58-12.24-21.97-18.16l2.03-36.18c-0.55-0.39-1.1-0.78-1.65-1.17l-2.02,36.03c-2.36-1.88-4.73-3.74-7.1-5.6
			l2.13-35.3c-0.55-0.37-1.09-0.75-1.64-1.12l-2.12,35.15c-11.48-8.93-23.08-17.52-34.7-25.7l1.47-31.16
			c-0.56-0.31-1.11-0.61-1.67-0.92l-1.46,30.91c-14.38-10.07-28.78-19.5-43-28.17l-0.35-23.77c-0.57-0.22-1.15-0.45-1.72-0.66
			l0.34,23.38c-6.26-3.79-12.48-7.44-18.64-10.92c-0.09-0.07-0.19-0.13-0.3-0.17c-4.35-2.45-8.66-4.82-12.95-7.11l-2.34-15.71
			c-0.6-0.14-1.19-0.27-1.79-0.41l2.25,15.12c-1.29-0.68-2.58-1.36-3.86-2.03l-2.8-14.04c-0.61-0.12-1.21-0.23-1.81-0.35l2.67,13.39
			c-3.06-1.58-6.11-3.12-9.13-4.61c-0.09-0.07-0.2-0.12-0.31-0.15c-8.55-4.2-16.94-8.03-25.11-11.48c-0.66,0.02-1.33,0.04-1.99,0.07
			C315.36,146.15,315.79,146.65,316.64,147.61z"/>
	</g>
</g>
<g>
	<g>
		<path style="fill:#446649;" d="M804.97,338.64c61.09-70.9,105.82-173.08,97.69-236.46c0,0-26.29,26.2-66.6,82.86
			c-40.31,56.66-67.69,105.5-67.69,105.5L804.97,338.64z"/>
	</g>
	<g>
		<path style="fill:#295A3A;" d="M901.3,103.58c-2.55,7.7-5.41,15.6-8.58,23.67l-2.99-10.97c-0.44,0.5-0.87,1-1.33,1.52l3.29,12.07
			c-3.76,9.45-7.93,19.11-12.46,28.94l-7.12-21.51c-0.41,0.51-0.84,1.04-1.26,1.56l7.35,22.19c-7.57,16.27-16.14,32.95-25.55,49.76
			l-7.3-38.65c-0.45,0.62-0.9,1.23-1.36,1.86l7.38,39.06c-1.16,2.06-2.33,4.12-3.52,6.18l-8.57-38.73
			c-0.44,0.61-0.88,1.23-1.32,1.84l8.64,39.05c-6.49,11.22-13.34,22.47-20.5,33.67l-9.22-42.33c-0.44,0.65-0.87,1.29-1.3,1.94
			l9.23,42.39c-9.21,14.32-18.93,28.55-29.07,42.52c-0.28,0.38-0.19,0.92,0.18,1.19c0.37,0.28,0.9,0.2,1.18-0.18
			c5.59-7.7,11.06-15.49,16.38-23.33l36.23-0.82c0.35-0.58,0.69-1.15,1.03-1.73l-36.08,0.81c1.69-2.5,3.36-5.01,5.02-7.51
			l35.35-0.65c0.33-0.58,0.66-1.15,0.99-1.73l-35.2,0.65c8-12.15,15.65-24.39,22.89-36.61l31.18-0.98c0.26-0.58,0.52-1.16,0.78-1.73
			l-30.93,0.98c8.91-15.13,17.18-30.22,24.71-45.08l23.67-2.21c0.18-0.59,0.36-1.18,0.53-1.76l-23.28,2.18
			c3.29-6.53,6.43-13.02,9.42-19.44c0.07-0.09,0.12-0.2,0.14-0.31c2.1-4.52,4.12-9.01,6.07-13.47l15.48-3.56
			c0.09-0.61,0.18-1.21,0.27-1.81l-14.9,3.43c0.58-1.34,1.15-2.68,1.72-4.01l13.78-3.9c0.07-0.61,0.14-1.22,0.2-1.83l-13.13,3.72
			c1.33-3.18,2.63-6.33,3.87-9.47c0.06-0.1,0.11-0.2,0.13-0.32c3.52-8.86,6.68-17.52,9.47-25.94c-0.07-0.66-0.14-1.32-0.23-1.98
			C902.65,102.19,902.18,102.66,901.3,103.58z"/>
	</g>
</g>
<g>
	<g>
		<path style="fill:#437451;" d="M188.7,250.67c-7-6.75-10.35-16.6-17.63-23.06c-8.02-7.12-19.38-8.95-30.06-10.47
			c-10.46-1.5-20.91-2.99-31.37-4.49c-10.75-1.54-21.86-3.2-31.01-8.98c-20.65-13.05-24.09-41.39-45.49-53.82
			c-4.51-2.62-10-4.03-15.05-2.67c-18.94,5.08-6.76,31.16,0.21,41.16c17.04,24.47,49.86,47.48,80.39,50.46
			c16.6,1.62,34.27-2.48,49.49,4.24c6.83,3.02,12.55,8,18.93,11.87c11.5,6.99,25.27,10.28,38.74,9.27c7.1-0.53,14.69-2.6,18.96-8.21
			c-2.75,3.62-14.2,3.33-18.28,2.9C199.89,258.15,193.47,255.27,188.7,250.67z"/>
	</g>
	<g>
		<path style="fill:#295A3A;" d="M225.95,254.67c0,0.15-0.06,0.29-0.18,0.39c-12.37,10.69-31.66,7.13-44.43,0.84
			c-5.75-2.84-9.34-6.81-12.81-10.65c-4.96-5.49-10.09-11.17-21.77-13.61c-7.18-1.5-15.87-2.52-24.28-3.51
			c-9.14-1.08-18.59-2.19-26.36-3.93c-40.12-8.97-57.86-31.19-73.47-64.13c-0.13-0.26-0.01-0.58,0.26-0.7
			c0.27-0.12,0.58-0.01,0.71,0.25c15.47,32.65,33.04,54.68,72.74,63.55c7.72,1.73,17.14,2.84,26.25,3.91
			c8.43,0.99,17.14,2.02,24.37,3.53c12.03,2.51,17.27,8.32,22.35,13.94c3.56,3.94,6.92,7.67,12.49,10.41
			c12.47,6.15,31.28,9.65,43.25-0.69c0.22-0.19,0.56-0.17,0.75,0.05C225.9,254.42,225.95,254.55,225.95,254.67z"/>
	</g>
</g>
<g>
	<g>
		<path style="fill:#437451;" d="M830.5,151.3c-8.27,5.12-18.63,5.96-26.68,11.43c-8.87,6.03-13.43,16.59-17.54,26.57
			c-4.02,9.77-8.04,19.54-12.06,29.31c-4.13,10.04-8.48,20.41-16.32,27.85c-17.72,16.82-46.04,13.18-63.35,30.87
			c-3.65,3.73-6.36,8.7-6.29,13.94c0.27,19.6,28.55,14.21,39.95,9.91c27.91-10.51,58.27-36.67,68.66-65.52
			c5.65-15.69,6.01-33.82,16.27-46.93c4.61-5.88,10.84-10.2,16.16-15.43c9.6-9.43,16.17-21.97,18.5-35.28
			c1.23-7.01,1.09-14.88-3.3-20.4c2.83,3.56-0.26,14.59-1.68,18.43C840.51,142.29,836.13,147.81,830.5,151.3z"/>
	</g>
	<g>
		<path style="fill:#295A3A;" d="M843.53,116.18c0.14,0.04,0.27,0.13,0.34,0.27c7.32,14.61-0.86,32.45-10.1,43.28
			c-4.16,4.88-8.9,7.38-13.47,9.8c-6.54,3.46-13.31,7.03-18.54,17.76c-3.22,6.59-6.34,14.77-9.37,22.67
			c-3.29,8.59-6.69,17.48-10.29,24.59c-18.55,36.69-44.45,48.42-80.21,55.46c-0.29,0.06-0.56-0.13-0.61-0.42
			c-0.05-0.29,0.13-0.57,0.42-0.62c35.45-6.97,61.12-18.59,79.47-54.89c3.57-7.06,6.96-15.92,10.24-24.49
			c3.03-7.92,6.17-16.12,9.41-22.76c5.39-11.04,12.31-14.7,19-18.24c4.7-2.48,9.13-4.83,13.16-9.55
			c9.02-10.58,17.04-27.95,9.96-42.1c-0.13-0.26-0.03-0.58,0.23-0.72C843.28,116.16,843.41,116.15,843.53,116.18z"/>
	</g>
</g>
<g>
	<path style="fill:#325A50;" d="M153.76,219.23c39.72,46.15,114.11,73.37,175.07,80.53c-9.86-56.41-50.14-111.71-68.76-130.38
		c-21.14-21.2-48.4-35.74-76.92-45.38c-28.52-9.65-59.16-12.82-89.02-16.97C107.02,147.59,125.86,186.82,153.76,219.23z"/>
	<g>
		<path style="fill:#143D2C;" d="M132.3,112.35c-0.56-0.09-1.12-0.17-1.68-0.26l9.54,36.3c-4.04-3.64-8.12-7.33-12.25-11.09
			l-8.28-26.81c-0.57-0.08-1.14-0.16-1.71-0.24l7.71,24.97c-6.15-5.62-12.4-11.39-18.74-17.29c0.02-0.06,0.03-0.12,0.03-0.18
			c0-0.08-0.01-0.16-0.03-0.24l-2.78-9.12c-0.57-0.08-1.13-0.15-1.7-0.23l2.38,7.82c-3.09-2.89-6.21-5.81-9.34-8.76
			c-0.44-0.06-0.88-0.12-1.33-0.18c0.16,0.51,0.33,1.02,0.49,1.53c5.35,5.04,10.64,9.99,15.87,14.84l-11.21-1.12
			c0.19,0.54,0.39,1.07,0.59,1.61l12.49,1.25c4.81,4.45,9.56,8.82,14.26,13.1c0.04,0.04,0.08,0.08,0.12,0.11
			c4.79,4.37,9.53,8.65,14.2,12.85c0.05,0.06,0.11,0.12,0.18,0.16c2.89,2.59,5.75,5.16,8.6,7.69l-36.32-2.73
			c0.25,0.53,0.51,1.07,0.77,1.6l37.45,2.81c2.44,2.17,4.87,4.31,7.27,6.43l-40.82-1.43c0.27,0.52,0.55,1.05,0.82,1.57l41.83,1.47
			c5.6,4.92,11.1,9.71,16.51,14.38c0.08,0.11,0.18,0.2,0.3,0.26c3.45,2.98,6.88,5.91,10.25,8.79l-53.57,1.14
			c0.34,0.51,0.68,1.01,1.02,1.52l54.32-1.16c8.26,7.02,16.28,13.74,24.07,20.16c0.09,0.13,0.21,0.23,0.35,0.29
			c5.7,4.7,11.27,9.25,16.72,13.64l-66.4,2.49c0.52,0.5,1.04,0.99,1.57,1.48l66.66-2.5c2.68,2.16,5.33,4.28,7.94,6.36l-66.14,3.52
			c0.59,0.49,1.19,0.97,1.79,1.45l66.16-3.52c3.84,3.05,7.61,6.02,11.31,8.91c0.09,0.13,0.21,0.23,0.36,0.28
			c5.1,3.98,10.06,7.82,14.88,11.5l-60.31,4.25c0.84,0.46,1.67,0.92,2.51,1.37l59.49-4.19c0.05,0,0.09-0.02,0.13-0.03
			c1.79,1.36,3.55,2.7,5.3,4.02c0.08,0.1,0.18,0.18,0.3,0.23c2.3,1.74,4.57,3.44,6.81,5.11l-52.49,4.4c0.99,0.44,1.98,0.87,2.97,1.3
			l51.38-4.31c15.45,11.5,29.2,21.3,41.15,29.52c0.92,0.12,1.83,0.23,2.74,0.33c-0.02-0.13-0.05-0.25-0.07-0.38
			c-0.38-0.26-0.76-0.52-1.15-0.79c-14.22-9.77-31.04-21.81-50.26-36.32l-1.4-74.34c-0.54-0.7-1.07-1.39-1.6-2.07l1.42,75.22
			c-6.64-5.02-13.56-10.34-20.75-15.96l-2.19-82.54c-0.53-0.47-1.06-0.93-1.6-1.39l2.19,82.68c-12.05-9.43-24.85-19.71-38.38-30.87
			l-7.37-79.27c-0.55-0.25-1.09-0.5-1.64-0.75l7.31,78.62c-11.1-9.17-22.68-18.94-34.72-29.32l-9.22-62.43
			c-0.55-0.15-1.09-0.29-1.64-0.43l9.05,61.3c-11.13-9.61-22.65-19.75-34.54-30.43L132.3,112.35z"/>
	</g>
</g>
<g>
	<path style="fill:#325A50;" d="M1259.42,176.8c-58.91,15.41-116.04,70.28-149.25,121.89c55.01,15.93,122.38,4.03,147.33-4.49
		c28.33-9.68,53.37-27.78,74.56-49.16c21.19-21.38,37.5-47.51,54.35-72.51C1344.31,166.29,1300.79,165.98,1259.42,176.8z"/>
	<g>
		<path style="fill:#143D2C;" d="M1364.87,204.48c0.32-0.47,0.65-0.93,0.97-1.4l-36.8-7.38c5.04-2.03,10.15-4.07,15.35-6.13
			l27.72,4.34c0.32-0.48,0.64-0.95,0.96-1.43l-25.82-4.04c7.76-3.06,15.68-6.14,23.77-9.24c0.05,0.04,0.09,0.08,0.15,0.11
			c0.07,0.04,0.15,0.06,0.23,0.08l9.41,1.51c0.32-0.48,0.64-0.95,0.95-1.43l-8.07-1.29c3.95-1.51,7.94-3.02,11.97-4.54
			c0.25-0.37,0.5-0.74,0.75-1.11c-0.53-0.08-1.06-0.15-1.59-0.23c-6.88,2.59-13.65,5.17-20.3,7.74l5.93-9.58
			c-0.57-0.06-1.13-0.12-1.7-0.18l-6.61,10.67c-6.11,2.36-12.12,4.72-18.04,7.06c-0.05,0.01-0.11,0.04-0.16,0.06
			c-6.03,2.39-11.96,4.76-17.79,7.11c-0.08,0.02-0.16,0.05-0.23,0.09c-3.6,1.45-7.16,2.9-10.68,4.35l18.41-31.43
			c-0.59-0.01-1.19-0.01-1.78-0.01l-18.98,32.41c-3.02,1.24-6.01,2.48-8.97,3.71l19.22-36.04c-0.59,0.01-1.18,0.03-1.77,0.05
			l-19.69,36.93c-6.88,2.87-13.6,5.71-20.17,8.52c-0.13,0.02-0.26,0.07-0.36,0.16c-4.19,1.79-8.33,3.58-12.4,5.35l22.51-48.63
			c-0.6,0.08-1.21,0.16-1.81,0.25l-22.82,49.31c-9.93,4.33-19.49,8.59-28.69,12.76c-0.15,0.02-0.3,0.09-0.41,0.19
			c-6.73,3.05-13.26,6.06-19.6,9.02l26.93-60.75c-0.67,0.25-1.35,0.5-2.02,0.76l-27.04,60.99c-3.11,1.46-6.18,2.91-9.2,4.34
			l25.89-60.96c-0.7,0.32-1.39,0.65-2.09,0.97l-25.9,60.98c-4.43,2.11-8.75,4.19-12.97,6.24c-0.15,0.02-0.3,0.09-0.41,0.2
			c-5.82,2.83-11.44,5.6-16.86,8.32l22.68-56.05c-0.78,0.55-1.56,1.1-2.33,1.66l-22.37,55.29c-0.02,0.04-0.02,0.09-0.03,0.13
			c-2.01,1.01-3.99,2-5.94,2.99c-0.12,0.03-0.24,0.09-0.34,0.17c-2.57,1.3-5.1,2.59-7.58,3.87l19.1-49.08
			c-0.83,0.69-1.65,1.39-2.47,2.1l-18.7,48.05c-17.12,8.83-31.96,16.88-44.59,24c-0.51,0.77-1.01,1.54-1.5,2.31
			c0.12,0.04,0.25,0.07,0.37,0.1c0.4-0.23,0.8-0.45,1.21-0.68c15.03-8.48,33.22-18.31,54.7-29.2l67.4,31.4
			c0.87-0.17,1.72-0.35,2.56-0.53l-68.19-31.77c7.43-3.75,15.25-7.64,23.45-11.63l75.11,34.29c0.65-0.27,1.3-0.55,1.95-0.83
			l-75.24-34.35c13.77-6.68,28.62-13.67,44.59-20.92l74.45,28.21c0.47-0.38,0.93-0.76,1.39-1.14l-73.84-27.97
			c13.12-5.94,26.98-12.05,41.59-18.31l60.13,19.14c0.37-0.43,0.74-0.86,1.11-1.29l-59.04-18.8c13.53-5.77,27.69-11.67,42.51-17.66
			L1364.87,204.48z"/>
	</g>
</g>
<g>
	<g>
		<path style="fill:#437451;" d="M1009.44,128.84c-4.49-0.99-8.97-1.74-13.49-0.51c-8.88,2.4-15.37,10.2-19.62,18.07
			c-5.66,10.48-10.77,27.76-23.68,31.24c-10.18,2.74-20.75-6.56-30.97-3.98c-7.99,2.02-12.46,10.37-16,17.9
			c-3.54,7.53-8.03,15.87-16.03,17.86c-7.42,1.85-14.78-0.86-22.23,1.6c-8.28,2.73-14.33,8.99-18.22,16.87
			c-4.13,8.36-5.57,17.84-5.97,27.2c-0.36,8.45-0.07,17.47-4.48,24.62c-4.78,7.74-14.08,11.52-19.37,18.9
			c-5.43,7.58-5.62,18.63-0.46,26.47c5.16,7.84,15.32,11.93,24.32,9.79c5.77-1.37,10.77-4.96,16.34-7c15.22-5.58,29,1.21,43.63,4.33
			c12.46,2.65,26.68-4.01,33.5-14.58c5.9-9.15,7.98-21.83,17.52-26.94c8.98-4.82,20.31-0.38,30.1-3.18
			c18.28-5.22,19.61-26.4,22.7-41.96c1.26-6.35,3.64-12.81,8.53-16.96c10.16-8.62,25.55-3.9,35.53-13.14
			c7.19-6.66,7.11-17.56,6.43-26.67c-0.47-6.33-1.17-12.77,0.15-18.97c1.31-6.2,5.05-12.25,10.91-14.43
			c9.11-3.38,21.72,1.26,25.84-10.98c1.92-5.7-0.35-11.9-0.62-17.93c-0.37-8.39,3.48-15.88,9.41-21.44
			c4.09-3.84,10.9-8.41,7.97-15.3c-4.29-10.11-18.35,2.21-23.81,5.07c-11.94,6.25-23.58-7.58-35.27,0.76
			c-12.88,9.19-10.2,34.46-29.41,35.29C1018.24,131.01,1013.84,129.81,1009.44,128.84z"/>
	</g>
	<g>
		<g>
			<path style="fill:#1E4C20;" d="M936.94,188.6c-0.29,1.09-1.41,1.73-2.49,1.43c-1.08-0.31-1.72-1.44-1.42-2.53
				s1.41-1.73,2.49-1.43C936.6,186.38,937.24,187.51,936.94,188.6z"/>
		</g>
		<g>
			<path style="fill:#1E4C20;" d="M950.02,188.85c-0.16,0.59-0.76,0.93-1.33,0.77s-0.92-0.77-0.76-1.36
				c0.16-0.59,0.75-0.93,1.33-0.77S950.18,188.27,950.02,188.85z"/>
		</g>
		<g>
			<path style="fill:#1E4C20;" d="M939.63,198.06c-0.14,0.51-0.66,0.81-1.17,0.67c-0.51-0.14-0.8-0.67-0.67-1.19
				c0.14-0.51,0.66-0.81,1.17-0.67S939.77,197.55,939.63,198.06z"/>
		</g>
		<g>
			
				<ellipse transform="matrix(0.9759 -0.2181 0.2181 0.9759 -4.8491 229.1465)" style="fill:#1E4C20;" cx="1035.37" cy="136.53" rx="1.5" ry="1.53"/>
		</g>
		<g>
			<path style="fill:#1E4C20;" d="M1075.55,104.82c-0.21,0.79-1.02,1.25-1.8,1.03s-1.24-1.04-1.03-1.83
				c0.21-0.79,1.02-1.25,1.8-1.03C1075.3,103.21,1075.76,104.03,1075.55,104.82z"/>
		</g>
		<g>
			<path style="fill:#1E4C20;" d="M1082.43,137.55c-0.17,0.63-0.81,1-1.43,0.82c-0.62-0.18-0.99-0.83-0.82-1.46
				c0.17-0.63,0.81-1,1.43-0.82C1082.24,136.27,1082.6,136.92,1082.43,137.55z"/>
		</g>
		<g>
			
				<ellipse transform="matrix(0.9759 -0.2181 0.2181 0.9759 -21.0701 230.5661)" style="fill:#1E4C20;" cx="1033.69" cy="210.71" rx="1.71" ry="1.74"/>
		</g>
		<g>
			<path style="fill:#1E4C20;" d="M996.02,248.66c-0.22,0.8-1.03,1.27-1.83,1.05c-0.79-0.22-1.26-1.06-1.04-1.86
				c0.22-0.8,1.03-1.27,1.83-1.05C995.77,247.02,996.24,247.85,996.02,248.66z"/>
		</g>
	</g>
	<g>
		<g>
			<path style="fill:#245924;" d="M1093.72,146.11l-52.2-0.53c22.2-18.76,45.19-37.76,69.05-57.05c-0.29-0.47-0.62-0.88-0.97-1.22
				c-19.54,15.8-38.5,31.4-56.92,46.84l9.3-41.33c-0.52-0.04-1.05-0.05-1.57-0.04l-9.68,43.01c-3.94,3.3-7.85,6.6-11.74,9.89
				c-0.07,0.04-0.12,0.09-0.17,0.15c-6.48,5.48-12.9,10.95-19.25,16.39c-0.07,0.04-0.12,0.09-0.18,0.15
				c-8.19,7.03-16.27,14.02-24.25,20.99c-0.07,0.04-0.14,0.1-0.19,0.17c-8.03,7.02-15.96,14.01-23.78,20.98l16.2-71.81
				c-0.67,0.52-1.32,1.06-1.95,1.63l-16.23,71.94c-2.76,2.46-5.51,4.93-8.25,7.38l16.03-68.44c-0.23,0.4-0.45,0.79-0.66,1.19
				c-0.75,1.39-1.5,2.91-2.25,4.49l-15.12,64.57c-17.55,15.8-34.56,31.47-51.07,47.05l15.22-89.12c-0.48,0.07-0.96,0.16-1.43,0.28
				c-0.06,0.02-0.12,0.04-0.19,0.05l-15.46,90.55c-4.31,4.08-8.6,8.15-12.84,12.22c-0.02,0.02-0.04,0.03-0.06,0.05
				c-5.06,4.85-10.08,9.69-15.05,14.52l15.17-83.08c-0.55,0.31-1.12,0.58-1.71,0.82l-15.36,84.12
				c-11.62,11.33-22.99,22.62-34.11,33.88c-0.3,0.3-0.3,0.8,0,1.1c0.1,0.1,0.21,0.17,0.34,0.2c0.26,0.07,0.55,0.01,0.75-0.2
				c7.25-7.35,14.61-14.7,22.07-22.08l74.21,6.88c0.24-0.5,0.48-0.99,0.72-1.5l-73.48-6.81c8.95-8.83,18.06-17.68,27.33-26.56
				l103.39,0.27c0.35-0.51,0.69-1.03,1.01-1.56l-102.78-0.27c31.45-30.08,64.76-60.47,100.18-91.43l62.01,11
				c0-0.53,0-1.06-0.01-1.58l-60.49-10.73c7.54-6.58,15.18-13.19,22.91-19.83l20.46,3.57c0.2,1.3,1.13,2.43,2.46,2.8
				c1.8,0.51,3.67-0.56,4.16-2.39c0.49-1.83-0.58-3.73-2.38-4.24c-1.76-0.5-3.58,0.51-4.12,2.26l-19.04-3.32
				c5.92-5.07,11.9-10.17,17.94-15.27l53.17,0.54C1093.17,147.19,1093.46,146.67,1093.72,146.11z M1044.52,164.96
				c0.99,0.28,1.57,1.32,1.3,2.32c-0.27,1-1.29,1.58-2.28,1.3c-0.99-0.28-1.57-1.32-1.3-2.32S1043.53,164.68,1044.52,164.96z"/>
		</g>
		<g>
			<path style="fill:#2B4C2A;" d="M998.97,158.79c1.8,0.51,3.67-0.56,4.16-2.39c0.49-1.83-0.58-3.73-2.38-4.24
				c-1.8-0.51-3.67,0.56-4.16,2.39C996.09,156.38,997.16,158.28,998.97,158.79z M1000.34,153.67c0.99,0.28,1.57,1.32,1.3,2.32
				c-0.27,1-1.29,1.58-2.27,1.3c-0.99-0.28-1.57-1.32-1.3-2.32C998.34,153.97,999.36,153.39,1000.34,153.67z"/>
		</g>
	</g>
</g>
</svg>
