<svg width="61" height="61" viewBox="0 0 61 61" fill="none" xmlns="http://www.w3.org/2000/svg">
<rect width="61" height="61" rx="3" fill="#1D1D1D"/>
<path d="M15.35 24.9C14.0667 24.9 13.0833 25.2917 12.4 26.075C11.7167 26.8583 11.375 27.9667 11.375 29.4C11.375 30.85 11.75 31.9667 12.5 32.75C13.2667 33.5333 14.2917 33.925 15.575 33.925C16.2583 33.925 16.8333 33.8333 17.3 33.65C17.7833 33.4667 18.2417 33.2583 18.675 33.025C18.9583 33.2583 19.175 33.5417 19.325 33.875C19.4917 34.1917 19.575 34.5667 19.575 35C19.575 35.6833 19.1917 36.2667 18.425 36.75C17.675 37.2167 16.525 37.45 14.975 37.45C13.8583 37.45 12.8083 37.2917 11.825 36.975C10.8417 36.6583 9.98333 36.175 9.25 35.525C8.51667 34.8583 7.93333 34.025 7.5 33.025C7.08333 32.0083 6.875 30.8 6.875 29.4C6.875 28.1 7.075 26.9583 7.475 25.975C7.89167 24.975 8.45 24.1333 9.15 23.45C9.86667 22.7667 10.7 22.25 11.65 21.9C12.6 21.55 13.6167 21.375 14.7 21.375C16.2333 21.375 17.4167 21.625 18.25 22.125C19.1 22.625 19.525 23.2667 19.525 24.05C19.525 24.4833 19.4167 24.8583 19.2 25.175C18.9833 25.4917 18.7333 25.7417 18.45 25.925C18.0167 25.6417 17.55 25.4 17.05 25.2C16.5667 25 16 24.9 15.35 24.9ZM36.1381 34.525C36.1381 35.0417 36.0464 35.425 35.8631 35.675C35.6798 35.925 35.3881 36.1667 34.9881 36.4C34.7548 36.5333 34.4631 36.6667 34.1131 36.8C33.7631 36.9167 33.3798 37.0167 32.9631 37.1C32.5464 37.2 32.1048 37.275 31.6381 37.325C31.1881 37.375 30.7381 37.4 30.2881 37.4C29.0881 37.4 27.9631 37.2417 26.9131 36.925C25.8631 36.5917 24.9464 36.1 24.1631 35.45C23.3964 34.7833 22.7881 33.9583 22.3381 32.975C21.8881 31.9917 21.6631 30.85 21.6631 29.55C21.6631 28.1833 21.9048 26.9917 22.3881 25.975C22.8881 24.9583 23.5381 24.1167 24.3381 23.45C25.1548 22.7667 26.0798 22.2583 27.1131 21.925C28.1631 21.5917 29.2381 21.425 30.3381 21.425C31.9214 21.425 33.1714 21.6833 34.0881 22.2C35.0214 22.7 35.4881 23.3583 35.4881 24.175C35.4881 24.6083 35.3798 24.9833 35.1631 25.3C34.9464 25.6167 34.6964 25.8667 34.4131 26.05C33.9964 25.8 33.4714 25.5583 32.8381 25.325C32.2214 25.075 31.5214 24.95 30.7381 24.95C29.3381 24.95 28.2214 25.35 27.3881 26.15C26.5714 26.95 26.1631 28.0583 26.1631 29.475C26.1631 30.2417 26.2714 30.9083 26.4881 31.475C26.7214 32.025 27.0298 32.4833 27.4131 32.85C27.7964 33.2 28.2381 33.4667 28.7381 33.65C29.2381 33.8167 29.7714 33.9 30.3381 33.9C30.7048 33.9 31.0298 33.8667 31.3131 33.8C31.5964 33.7333 31.8131 33.6583 31.9631 33.575V31.225H29.2881C29.1881 31.0417 29.0881 30.8 28.9881 30.5C28.9048 30.2 28.8631 29.8833 28.8631 29.55C28.8631 28.95 28.9964 28.5167 29.2631 28.25C29.5464 27.9833 29.9048 27.85 30.3381 27.85H34.5631C35.0631 27.85 35.4464 27.9917 35.7131 28.275C35.9964 28.5417 36.1381 28.925 36.1381 29.425V34.525Z" fill="#3FC6FF"/>
<path d="M44.0146 33.875C44.248 33.9417 44.548 33.9917 44.9146 34.025C45.2813 34.0417 45.6313 34.05 45.9646 34.05C46.6313 34.05 47.1813 33.9167 47.6146 33.65C48.0646 33.3667 48.2896 32.9333 48.2896 32.35C48.2896 31.8 48.1063 31.4083 47.7396 31.175C47.373 30.9417 46.8146 30.825 46.0646 30.825H44.0146V33.875ZM44.0146 27.775H45.8396C46.5563 27.775 47.073 27.6417 47.3896 27.375C47.723 27.1083 47.8896 26.7167 47.8896 26.2C47.8896 25.75 47.698 25.3917 47.3146 25.125C46.948 24.8583 46.3896 24.725 45.6396 24.725C45.3896 24.725 45.098 24.7333 44.7646 24.75C44.448 24.7667 44.198 24.7917 44.0146 24.825V27.775ZM45.6396 37.4C45.3563 37.4 45.023 37.3917 44.6396 37.375C44.2563 37.3583 43.8563 37.325 43.4396 37.275C43.0396 37.225 42.6396 37.1583 42.2396 37.075C41.8396 37.0083 41.473 36.9083 41.1396 36.775C40.223 36.425 39.7646 35.8167 39.7646 34.95V23.275C39.7646 22.925 39.8563 22.6583 40.0396 22.475C40.2396 22.275 40.5063 22.1167 40.8396 22C41.4063 21.8 42.1146 21.6583 42.9646 21.575C43.8146 21.475 44.6896 21.425 45.5896 21.425C47.723 21.425 49.3646 21.7833 50.5146 22.5C51.6646 23.2167 52.2396 24.325 52.2396 25.825C52.2396 26.575 52.023 27.225 51.5896 27.775C51.1563 28.3083 50.573 28.7 49.8396 28.95C50.673 29.1833 51.3646 29.6083 51.9146 30.225C52.4813 30.8417 52.7646 31.6167 52.7646 32.55C52.7646 34.2 52.148 35.425 50.9146 36.225C49.698 37.0083 47.9396 37.4 45.6396 37.4Z" fill="white"/>
</svg>
