<svg width="500" height="500" viewBox="0 0 500 500" fill="none" xmlns="http://www.w3.org/2000/svg">
 <style>
    @media (prefers-color-scheme: dark) {
      .favicon_dark_mode { fill: #f0f0f0 }
    }
  </style>
<path className='favicon_dark_mode' fill-rule="evenodd" clip-rule="evenodd" d="M169.054 373.588C145.932 373.588 127.194 392.48 127.194 415.792V428.162C127.194 451.474 145.932 470.367 169.054 470.367H329.933C353.055 470.367 371.793 451.474 371.793 428.162V415.792C371.793 392.48 353.055 373.588 329.933 373.588H292.764C289.578 373.588 286.995 370.984 286.995 367.771C286.995 364.559 289.578 361.954 292.764 361.954H329.933C359.428 361.954 383.332 386.055 383.332 415.792V428.162C383.332 457.9 359.428 482 329.933 482H169.054C139.559 482 115.655 457.9 115.655 428.162V415.792C115.655 386.055 139.559 361.954 169.054 361.954H206.543C209.729 361.954 212.312 364.559 212.312 367.771C212.312 370.984 209.729 373.588 206.543 373.588H169.054Z" fill="black"/>
<path className='favicon_dark_mode' fill-rule="evenodd" clip-rule="evenodd" d="M168.311 427.438C171.497 427.438 174.08 430.043 174.08 433.255V473.314C174.08 476.526 171.497 479.13 168.311 479.13C165.124 479.13 162.541 476.526 162.541 473.314V433.255C162.541 430.043 165.124 427.438 168.311 427.438Z" fill="black"/>
<path className='favicon_dark_mode' fill-rule="evenodd" clip-rule="evenodd" d="M327.689 428.847C330.875 428.847 333.458 431.452 333.458 434.664V474.723C333.458 477.935 330.875 480.539 327.689 480.539C324.503 480.539 321.92 477.935 321.92 474.723V434.664C321.92 431.452 324.503 428.847 327.689 428.847Z" fill="black"/>
<path className='favicon_dark_mode' fill-rule="evenodd" clip-rule="evenodd" d="M207.761 350.514C210.947 350.514 213.53 353.119 213.53 356.331V382.067C213.53 402.096 229.64 418.338 249.506 418.338C269.372 418.338 285.482 402.096 285.482 382.067V357.197C285.482 353.985 288.065 351.381 291.252 351.381C294.438 351.381 297.021 353.985 297.021 357.197V382.067C297.021 408.521 275.745 429.972 249.506 429.972C223.268 429.972 201.992 408.521 201.992 382.067V356.331C201.992 353.119 204.575 350.514 207.761 350.514Z" fill="black"/>
<path className='favicon_dark_mode' fill-rule="evenodd" clip-rule="evenodd" d="M130.425 193.28C116.136 193.28 104.539 204.972 104.539 219.378C104.539 233.785 116.125 245.476 130.425 245.476V257.109C109.749 257.109 93 240.207 93 219.378C93 198.547 109.763 181.646 130.425 181.646V193.28Z" fill="black"/>
<path className='favicon_dark_mode' fill-rule="evenodd" clip-rule="evenodd" d="M394.448 219.365C394.448 204.957 382.863 193.267 368.563 193.267V181.633C389.239 181.633 405.987 198.535 405.987 219.365C405.987 240.196 389.224 257.097 368.563 257.097V245.463C382.851 245.463 394.448 233.771 394.448 219.365Z" fill="black"/>
<path className='favicon_dark_mode' fill-rule="evenodd" clip-rule="evenodd" d="M250.045 29.6336C187.367 29.6336 137.297 77.1841 137.297 134.969V250.452C137.297 308.238 187.367 355.788 250.045 355.788C312.71 355.788 362.793 308.237 362.793 250.452V134.969C362.793 77.1841 312.722 29.6336 250.045 29.6336ZM125.758 134.969C125.758 69.9815 181.794 18 250.045 18C318.296 18 374.332 69.9815 374.332 134.969V250.452C374.332 315.441 318.282 367.422 250.045 367.422C181.794 367.422 125.758 315.44 125.758 250.452V134.969Z" fill="black"/>
<path className='favicon_dark_mode' fill-rule="evenodd" clip-rule="evenodd" d="M216.159 206.607C186.773 206.607 162.952 230.624 162.952 260.25C162.952 289.877 186.773 313.894 216.159 313.894C245.544 313.894 269.366 289.877 269.366 260.25C269.366 230.624 245.544 206.607 216.159 206.607ZM151.413 260.25C151.413 224.199 180.4 194.973 216.159 194.973C251.917 194.973 280.905 224.199 280.905 260.25C280.905 296.302 251.917 325.528 216.159 325.528C180.4 325.528 151.413 296.302 151.413 260.25Z" fill="black"/>
<path className='favicon_dark_mode' fill-rule="evenodd" clip-rule="evenodd" d="M284.11 72.1739C254.725 72.1739 230.903 96.1911 230.903 125.818C230.903 155.444 254.725 179.462 284.11 179.462C313.496 179.462 337.317 155.444 337.317 125.818C337.317 96.1911 313.496 72.1739 284.11 72.1739ZM219.364 125.818C219.364 89.766 248.352 60.5403 284.11 60.5403C319.869 60.5403 348.856 89.766 348.856 125.818C348.856 161.87 319.869 191.095 284.11 191.095C248.352 191.095 219.364 161.87 219.364 125.818Z" fill="black"/>
</svg>
